<svg width="119" height="40" viewBox="0 0 119 40" fill="none" xmlns="http://www.w3.org/2000/svg">
<path d="M14.2531 12.934C14.0125 12.934 13.8321 13.1144 13.8321 13.355V13.4151C13.8321 13.6557 14.0125 13.8361 14.2531 13.8361H14.3132C14.5538 13.8361 14.7342 13.6557 14.7342 13.4151V13.355C14.7342 13.1144 14.5538 12.934 14.3132 12.934H14.2531ZM12.0279 13.355C12.0279 12.062 13.0202 11.0997 14.3132 11.0997C15.6062 11.0997 16.5685 12.062 16.5685 13.355C16.5685 14.648 15.6062 15.6403 14.3132 15.6403C13.0202 15.6403 12.0279 14.7081 12.0279 13.355ZM11.2461 12.934C11.0056 12.934 10.8251 13.1144 10.8251 13.355V13.4151C10.8251 13.6557 11.0056 13.8361 11.2461 13.8361H11.3063C11.5468 13.8361 11.7272 13.6557 11.7272 13.4151V13.355C11.7272 13.1144 11.5468 12.934 11.3063 12.934H11.2461ZM9.02095 13.355C9.02095 12.062 10.0133 11.0997 11.3063 11.0997C12.5993 11.0997 13.5615 12.062 13.5615 13.355C13.5615 14.648 12.5993 15.6403 11.3063 15.6403C10.0133 15.6403 9.02095 14.7081 9.02095 13.355ZM8.23913 12.934C7.99857 12.934 7.81815 13.1144 7.81815 13.355V13.4151C7.81815 13.6557 7.99857 13.8361 8.23913 13.8361H8.29927C8.53983 13.8361 8.72025 13.6557 8.72025 13.4151V13.355C8.72025 13.1144 8.53983 12.934 8.29927 12.934H8.23913ZM6.01396 13.355C6.01396 12.062 7.00627 11.0997 8.29927 11.0997C9.59227 11.0997 10.5545 12.062 10.5545 13.355C10.5545 14.648 9.59227 15.6403 8.29927 15.6403C7.00627 15.6403 6.01396 14.7081 6.01396 13.355ZM5.23215 12.934C4.99159 12.934 4.81117 13.1144 4.81117 13.355V13.4151C4.81117 13.6557 4.99159 13.8361 5.23215 13.8361H5.29229C5.53285 13.8361 5.71327 13.6557 5.71327 13.4151V13.355C5.71327 13.1144 5.53285 12.934 5.29229 12.934H5.23215ZM3.00698 13.355C3.00698 12.062 3.99929 11.0997 5.29229 11.0997C6.58529 11.0997 7.54753 12.062 7.54753 13.355C7.54753 14.648 6.58529 15.6403 5.29229 15.6403C3.99929 15.6403 3.00698 14.7081 3.00698 13.355ZM2.22517 15.941C1.98461 15.941 1.80419 16.1214 1.80419 16.3619V16.4221C1.80419 16.6626 1.98461 16.8431 2.22517 16.8431H2.28531C2.52587 16.8431 2.70628 16.6626 2.70628 16.4221V16.3619C2.70628 16.1214 2.52587 15.941 2.28531 15.941H2.22517ZM0 16.3619C0 15.0689 0.992304 14.1067 2.28531 14.1067C3.57831 14.1067 4.54054 15.0689 4.54054 16.3619C4.54054 17.6549 3.57831 18.6472 2.28531 18.6472C0.992304 18.6472 0 17.7151 0 16.3619ZM5.23215 18.9479C4.99159 18.9479 4.81117 19.1284 4.81117 19.3689V19.4291C4.81117 19.6696 4.99159 19.85 5.23215 19.85H5.29229C5.53285 19.85 5.71327 19.6696 5.71327 19.4291V19.3689C5.71327 19.1284 5.53285 18.9479 5.29229 18.9479H5.23215ZM3.00698 19.3689C3.00698 18.0759 3.99929 17.1137 5.29229 17.1137C6.58529 17.1137 7.54753 18.0759 7.54753 19.3689C7.54753 20.6619 6.58529 21.6542 5.29229 21.6542C3.99929 21.6542 3.00698 20.7221 3.00698 19.3689ZM8.23913 21.9549C7.99857 21.9549 7.81815 22.1353 7.81815 22.3759V22.436C7.81815 22.6766 7.99857 22.857 8.23913 22.857H8.29927C8.53983 22.857 8.72025 22.6766 8.72025 22.436V22.3759C8.72025 22.1353 8.53983 21.9549 8.29927 21.9549H8.23913ZM6.01396 22.3759C6.01396 21.0829 7.00627 20.1207 8.29927 20.1207C9.59227 20.1207 10.5545 21.0829 10.5545 22.3759C10.5545 23.6689 9.59227 24.6612 8.29927 24.6612C7.00627 24.6612 6.01396 23.729 6.01396 22.3759ZM14.2531 21.9549C14.0125 21.9549 13.8321 22.1353 13.8321 22.3759V22.436C13.8321 22.6766 14.0125 22.857 14.2531 22.857H14.3132C14.5538 22.857 14.7342 22.6766 14.7342 22.436V22.3759C14.7342 22.1353 14.5538 21.9549 14.3132 21.9549H14.2531ZM12.0279 22.3759C12.0279 21.0829 13.0202 20.1207 14.3132 20.1207C15.6062 20.1207 16.5685 21.0829 16.5685 22.3759C16.5685 23.6689 15.6062 24.6612 14.3132 24.6612C13.0202 24.6612 12.0279 23.729 12.0279 22.3759ZM17.2601 24.9619C17.0195 24.9619 16.8391 25.1423 16.8391 25.3829V25.443C16.8391 25.6836 17.0195 25.864 17.2601 25.864H17.3202C17.5608 25.864 17.7412 25.6836 17.7412 25.443V25.3829C17.7412 25.1423 17.5608 24.9619 17.3202 24.9619H17.2601ZM15.0349 25.3829C15.0349 24.0899 16.0272 23.1276 17.3202 23.1276C18.6132 23.1276 19.5755 24.0899 19.5755 25.3829C19.5755 26.6759 18.6132 27.6682 17.3202 27.6682C16.0272 27.6682 15.0349 26.736 15.0349 25.3829ZM14.2531 30.9759C14.0125 30.9759 13.8321 31.1563 13.8321 31.3968V31.457C13.8321 31.6975 14.0125 31.878 14.2531 31.878H14.3132C14.5538 31.878 14.7342 31.6975 14.7342 31.457V31.3968C14.7342 31.1563 14.5538 30.9759 14.3132 30.9759H14.2531ZM12.0279 31.3968C12.0279 30.1038 13.0202 29.1416 14.3132 29.1416C15.6062 29.1416 16.5685 30.1038 16.5685 31.3968C16.5685 32.6899 15.6062 33.6822 14.3132 33.6822C13.0202 33.6822 12.0279 32.75 12.0279 31.3968ZM11.2461 30.9759C11.0056 30.9759 10.8251 31.1563 10.8251 31.3968V31.457C10.8251 31.6975 11.0056 31.878 11.2461 31.878H11.3063C11.5468 31.878 11.7272 31.6975 11.7272 31.457V31.3968C11.7272 31.1563 11.5468 30.9759 11.3063 30.9759H11.2461ZM9.02095 31.3968C9.02095 30.1038 10.0133 29.1416 11.3063 29.1416C12.5993 29.1416 13.5615 30.1038 13.5615 31.3968C13.5615 32.6899 12.5993 33.6822 11.3063 33.6822C10.0133 33.6822 9.02095 32.75 9.02095 31.3968ZM8.23913 30.9759C7.99857 30.9759 7.81815 31.1563 7.81815 31.3968V31.457C7.81815 31.6975 7.99857 31.878 8.23913 31.878H8.29927C8.53983 31.878 8.72025 31.6975 8.72025 31.457V31.3968C8.72025 31.1563 8.53983 30.9759 8.29927 30.9759H8.23913ZM6.01396 31.3968C6.01396 30.1038 7.00627 29.1416 8.29927 29.1416C9.59227 29.1416 10.5545 30.1038 10.5545 31.3968C10.5545 32.6899 9.59227 33.6822 8.29927 33.6822C7.00627 33.6822 6.01396 32.75 6.01396 31.3968ZM5.23215 30.9759C4.99159 30.9759 4.81117 31.1563 4.81117 31.3968V31.457C4.81117 31.6975 4.99159 31.878 5.23215 31.878H5.29229C5.53285 31.878 5.71327 31.6975 5.71327 31.457V31.3968C5.71327 31.1563 5.53285 30.9759 5.29229 30.9759H5.23215ZM3.00698 31.3968C3.00698 30.1038 3.99929 29.1416 5.29229 29.1416C6.58529 29.1416 7.54753 30.1038 7.54753 31.3968C7.54753 32.6899 6.58529 33.6822 5.29229 33.6822C3.99929 33.6822 3.00698 32.75 3.00698 31.3968ZM2.22517 27.9689C1.98461 27.9689 1.80419 28.1493 1.80419 28.3899V28.45C1.80419 28.6906 1.98461 28.871 2.22517 28.871H2.28531C2.52587 28.871 2.70628 28.6906 2.70628 28.45V28.3899C2.70628 28.1493 2.52587 27.9689 2.28531 27.9689H2.22517ZM0 28.3899C0 27.0969 0.992304 26.1346 2.28531 26.1346C3.57831 26.1346 4.54054 27.0969 4.54054 28.3899C4.54054 29.6829 3.57831 30.6752 2.28531 30.6752C0.992304 30.6752 0 29.743 0 28.3899ZM17.2601 12.934C17.0195 12.934 16.8391 13.1144 16.8391 13.355V13.4151C16.8391 13.6557 17.0195 13.8361 17.2601 13.8361H17.3202C17.5608 13.8361 17.7412 13.6557 17.7412 13.4151V13.355C17.7412 13.1144 17.5608 12.934 17.3202 12.934H17.2601ZM15.0349 13.355C15.0349 12.062 16.0272 11.0997 17.3202 11.0997C18.6132 11.0997 19.5755 12.062 19.5755 13.355C19.5755 14.648 18.6132 15.6403 17.3202 15.6403C16.0272 15.6403 15.0349 14.7081 15.0349 13.355ZM11.2461 15.941C11.0056 15.941 10.8251 16.1214 10.8251 16.3619V16.4221C10.8251 16.6626 11.0056 16.8431 11.2461 16.8431H11.3063C11.5468 16.8431 11.7272 16.6626 11.7272 16.4221V16.3619C11.7272 16.1214 11.5468 15.941 11.3063 15.941H11.2461ZM9.02095 16.3619C9.02095 15.0689 10.0133 14.1067 11.3063 14.1067C12.5993 14.1067 13.5615 15.0689 13.5615 16.3619C13.5615 17.6549 12.5993 18.6472 11.3063 18.6472C10.0133 18.6472 9.02095 17.7151 9.02095 16.3619ZM11.2461 9.92699C11.0056 9.92699 10.8251 10.1074 10.8251 10.348V10.4081C10.8251 10.6487 11.0056 10.8291 11.2461 10.8291H11.3063C11.5468 10.8291 11.7272 10.6487 11.7272 10.4081V10.348C11.7272 10.1074 11.5468 9.92699 11.3063 9.92699H11.2461ZM9.02095 10.348C9.02095 9.05497 10.0133 8.09274 11.3063 8.09274C12.5993 8.09274 13.5615 9.05497 13.5615 10.348C13.5615 11.641 12.5993 12.6333 11.3063 12.6333C10.0133 12.6333 9.02095 11.7011 9.02095 10.348ZM11.2461 18.9479C11.0056 18.9479 10.8251 19.1284 10.8251 19.3689V19.4291C10.8251 19.6696 11.0056 19.85 11.2461 19.85H11.3063C11.5468 19.85 11.7272 19.6696 11.7272 19.4291V19.3689C11.7272 19.1284 11.5468 18.9479 11.3063 18.9479H11.2461ZM9.02095 19.3689C9.02095 18.0759 10.0133 17.1137 11.3063 17.1137C12.5993 17.1137 13.5615 18.0759 13.5615 19.3689C13.5615 20.6619 12.5993 21.6542 11.3063 21.6542C10.0133 21.6542 9.02095 20.7221 9.02095 19.3689ZM11.2461 21.9549C11.0056 21.9549 10.8251 22.1353 10.8251 22.3759V22.436C10.8251 22.6766 11.0056 22.857 11.2461 22.857H11.3063C11.5468 22.857 11.7272 22.6766 11.7272 22.436V22.3759C11.7272 22.1353 11.5468 21.9549 11.3063 21.9549H11.2461ZM9.02095 22.3759C9.02095 21.0829 10.0133 20.1207 11.3063 20.1207C12.5993 20.1207 13.5615 21.0829 13.5615 22.3759C13.5615 23.6689 12.5993 24.6612 11.3063 24.6612C10.0133 24.6612 9.02095 23.729 9.02095 22.3759ZM11.2461 24.9619C11.0056 24.9619 10.8251 25.1423 10.8251 25.3829V25.443C10.8251 25.6836 11.0056 25.864 11.2461 25.864H11.3063C11.5468 25.864 11.7272 25.6836 11.7272 25.443V25.3829C11.7272 25.1423 11.5468 24.9619 11.3063 24.9619H11.2461ZM9.02095 25.3829C9.02095 24.0899 10.0133 23.1276 11.3063 23.1276C12.5993 23.1276 13.5615 24.0899 13.5615 25.3829C13.5615 26.6759 12.5993 27.6682 11.3063 27.6682C10.0133 27.6682 9.02095 26.736 9.02095 25.3829ZM11.2461 27.9689C11.0056 27.9689 10.8251 28.1493 10.8251 28.3899V28.45C10.8251 28.6906 11.0056 28.871 11.2461 28.871H11.3063C11.5468 28.871 11.7272 28.6906 11.7272 28.45V28.3899C11.7272 28.1493 11.5468 27.9689 11.3063 27.9689H11.2461ZM9.02095 28.3899C9.02095 27.0969 10.0133 26.1346 11.3063 26.1346C12.5993 26.1346 13.5615 27.0969 13.5615 28.3899C13.5615 29.6829 12.5993 30.6752 11.3063 30.6752C10.0133 30.6752 9.02095 29.743 9.02095 28.3899ZM11.2461 33.9829C11.0056 33.9829 10.8251 34.1633 10.8251 34.4038V34.464C10.8251 34.7045 11.0056 34.8849 11.2461 34.8849H11.3063C11.5468 34.8849 11.7272 34.7045 11.7272 34.464V34.4038C11.7272 34.1633 11.5468 33.9829 11.3063 33.9829H11.2461ZM9.02095 34.4038C9.02095 33.1108 10.0133 32.1486 11.3063 32.1486C12.5993 32.1486 13.5615 33.1108 13.5615 34.4038C13.5615 35.6968 12.5993 36.6891 11.3063 36.6891C10.0133 36.6891 9.02095 35.757 9.02095 34.4038ZM20.2671 15.941C20.0265 15.941 19.8461 16.1214 19.8461 16.3619V16.4221C19.8461 16.6626 20.0265 16.8431 20.2671 16.8431H20.3272C20.5678 16.8431 20.7482 16.6626 20.7482 16.4221V16.3619C20.7482 16.1214 20.5678 15.941 20.3272 15.941H20.2671ZM18.0419 16.3619C18.0419 15.0689 19.0342 14.1067 20.3272 14.1067C21.6202 14.1067 22.5824 15.0689 22.5824 16.3619C22.5824 17.6549 21.6202 18.6472 20.3272 18.6472C19.0342 18.6472 18.0419 17.7151 18.0419 16.3619ZM20.2671 27.9689C20.0265 27.9689 19.8461 28.1493 19.8461 28.3899V28.45C19.8461 28.6906 20.0265 28.871 20.2671 28.871H20.3272C20.5678 28.871 20.7482 28.6906 20.7482 28.45V28.3899C20.7482 28.1493 20.5678 27.9689 20.3272 27.9689H20.2671ZM18.0419 28.3899C18.0419 27.0969 19.0342 26.1346 20.3272 26.1346C21.6202 26.1346 22.5824 27.0969 22.5824 28.3899C22.5824 29.6829 21.6202 30.6752 20.3272 30.6752C19.0342 30.6752 18.0419 29.743 18.0419 28.3899ZM17.2601 30.9759C17.0195 30.9759 16.8391 31.1563 16.8391 31.3968V31.457C16.8391 31.6975 17.0195 31.878 17.2601 31.878H17.3202C17.5608 31.878 17.7412 31.6975 17.7412 31.457V31.3968C17.7412 31.1563 17.5608 30.9759 17.3202 30.9759H17.2601ZM15.0349 31.3968C15.0349 30.1038 16.0272 29.1416 17.3202 29.1416C18.6132 29.1416 19.5755 30.1038 19.5755 31.3968C19.5755 32.6899 18.6132 33.6822 17.3202 33.6822C16.0272 33.6822 15.0349 32.75 15.0349 31.3968Z" fill="white"/>
<path d="M26.4666 15.941C26.2261 15.941 26.0456 16.1214 26.0456 16.3619V16.4221C26.0456 16.6626 26.2261 16.8431 26.4666 16.8431H26.5268C26.7673 16.8431 26.9477 16.6626 26.9477 16.4221V16.3619C26.9477 16.1214 26.7673 15.941 26.5268 15.941H26.4666ZM24.2414 16.3619C24.2414 15.0689 25.2337 14.1067 26.5268 14.1067C27.8198 14.1067 28.782 15.0689 28.782 16.3619C28.782 17.6549 27.8198 18.6472 26.5268 18.6472C25.2337 18.6472 24.2414 17.7151 24.2414 16.3619ZM29.4736 12.934C29.233 12.934 29.0526 13.1144 29.0526 13.355V13.4151C29.0526 13.6557 29.233 13.8361 29.4736 13.8361H29.5337C29.7743 13.8361 29.9547 13.6557 29.9547 13.4151V13.355C29.9547 13.1144 29.7743 12.934 29.5337 12.934H29.4736ZM27.2484 13.355C27.2484 12.062 28.2407 11.0997 29.5337 11.0997C30.8267 11.0997 31.789 12.062 31.789 13.355C31.789 14.648 30.8267 15.6403 29.5337 15.6403C28.2407 15.6403 27.2484 14.7081 27.2484 13.355ZM32.4806 12.934C32.24 12.934 32.0596 13.1144 32.0596 13.355V13.4151C32.0596 13.6557 32.24 13.8361 32.4806 13.8361H32.5407C32.7813 13.8361 32.9617 13.6557 32.9617 13.4151V13.355C32.9617 13.1144 32.7813 12.934 32.5407 12.934H32.4806ZM30.2554 13.355C30.2554 12.062 31.2477 11.0997 32.5407 11.0997C33.8337 11.0997 34.796 12.062 34.796 13.355C34.796 14.648 33.8337 15.6403 32.5407 15.6403C31.2477 15.6403 30.2554 14.7081 30.2554 13.355ZM35.4876 12.934C35.247 12.934 35.0666 13.1144 35.0666 13.355V13.4151C35.0666 13.6557 35.247 13.8361 35.4876 13.8361H35.5477C35.7883 13.8361 35.9687 13.6557 35.9687 13.4151V13.355C35.9687 13.1144 35.7883 12.934 35.5477 12.934H35.4876ZM33.2624 13.355C33.2624 12.062 34.2547 11.0997 35.5477 11.0997C36.8407 11.0997 37.8029 12.062 37.8029 13.355C37.8029 14.648 36.8407 15.6403 35.5477 15.6403C34.2547 15.6403 33.2624 14.7081 33.2624 13.355ZM38.4945 12.934C38.254 12.934 38.0736 13.1144 38.0736 13.355V13.4151C38.0736 13.6557 38.254 13.8361 38.4945 13.8361H38.5547C38.7952 13.8361 38.9757 13.6557 38.9757 13.4151V13.355C38.9757 13.1144 38.7952 12.934 38.5547 12.934H38.4945ZM36.2694 13.355C36.2694 12.062 37.2617 11.0997 38.5547 11.0997C39.8477 11.0997 40.8099 12.062 40.8099 13.355C40.8099 14.648 39.8477 15.6403 38.5547 15.6403C37.2617 15.6403 36.2694 14.7081 36.2694 13.355ZM41.5015 15.941C41.261 15.941 41.0805 16.1214 41.0805 16.3619V16.4221C41.0805 16.6626 41.261 16.8431 41.5015 16.8431H41.5617C41.8022 16.8431 41.9826 16.6626 41.9826 16.4221V16.3619C41.9826 16.1214 41.8022 15.941 41.5617 15.941H41.5015ZM39.2764 16.3619C39.2764 15.0689 40.2687 14.1067 41.5617 14.1067C42.8547 14.1067 43.8169 15.0689 43.8169 16.3619C43.8169 17.6549 42.8547 18.6472 41.5617 18.6472C40.2687 18.6472 39.2764 17.7151 39.2764 16.3619ZM41.5015 18.9479C41.261 18.9479 41.0805 19.1284 41.0805 19.3689V19.4291C41.0805 19.6696 41.261 19.85 41.5015 19.85H41.5617C41.8022 19.85 41.9826 19.6696 41.9826 19.4291V19.3689C41.9826 19.1284 41.8022 18.9479 41.5617 18.9479H41.5015ZM39.2764 19.3689C39.2764 18.0759 40.2687 17.1137 41.5617 17.1137C42.8547 17.1137 43.8169 18.0759 43.8169 19.3689C43.8169 20.6619 42.8547 21.6542 41.5617 21.6542C40.2687 21.6542 39.2764 20.7221 39.2764 19.3689ZM35.4876 21.9549C35.247 21.9549 35.0666 22.1353 35.0666 22.3759V22.436C35.0666 22.6766 35.247 22.857 35.4876 22.857H35.5477C35.7883 22.857 35.9687 22.6766 35.9687 22.436V22.3759C35.9687 22.1353 35.7883 21.9549 35.5477 21.9549H35.4876ZM33.2624 22.3759C33.2624 21.0829 34.2547 20.1207 35.5477 20.1207C36.8407 20.1207 37.8029 21.0829 37.8029 22.3759C37.8029 23.6689 36.8407 24.6612 35.5477 24.6612C34.2547 24.6612 33.2624 23.729 33.2624 22.3759ZM41.5015 27.9689C41.261 27.9689 41.0805 28.1493 41.0805 28.3899V28.45C41.0805 28.6906 41.261 28.871 41.5015 28.871H41.5617C41.8022 28.871 41.9826 28.6906 41.9826 28.45V28.3899C41.9826 28.1493 41.8022 27.9689 41.5617 27.9689H41.5015ZM39.2764 28.3899C39.2764 27.0969 40.2687 26.1346 41.5617 26.1346C42.8547 26.1346 43.8169 27.0969 43.8169 28.3899C43.8169 29.6829 42.8547 30.6752 41.5617 30.6752C40.2687 30.6752 39.2764 29.743 39.2764 28.3899ZM38.4945 30.9759C38.254 30.9759 38.0736 31.1563 38.0736 31.3968V31.457C38.0736 31.6975 38.254 31.878 38.4945 31.878H38.5547C38.7952 31.878 38.9757 31.6975 38.9757 31.457V31.3968C38.9757 31.1563 38.7952 30.9759 38.5547 30.9759H38.4945ZM36.2694 31.3968C36.2694 30.1038 37.2617 29.1416 38.5547 29.1416C39.8477 29.1416 40.8099 30.1038 40.8099 31.3968C40.8099 32.6899 39.8477 33.6822 38.5547 33.6822C37.2617 33.6822 36.2694 32.75 36.2694 31.3968ZM35.4876 30.9759C35.247 30.9759 35.0666 31.1563 35.0666 31.3968V31.457C35.0666 31.6975 35.247 31.878 35.4876 31.878H35.5477C35.7883 31.878 35.9687 31.6975 35.9687 31.457V31.3968C35.9687 31.1563 35.7883 30.9759 35.5477 30.9759H35.4876ZM33.2624 31.3968C33.2624 30.1038 34.2547 29.1416 35.5477 29.1416C36.8407 29.1416 37.8029 30.1038 37.8029 31.3968C37.8029 32.6899 36.8407 33.6822 35.5477 33.6822C34.2547 33.6822 33.2624 32.75 33.2624 31.3968ZM32.4806 30.9759C32.24 30.9759 32.0596 31.1563 32.0596 31.3968V31.457C32.0596 31.6975 32.24 31.878 32.4806 31.878H32.5407C32.7813 31.878 32.9617 31.6975 32.9617 31.457V31.3968C32.9617 31.1563 32.7813 30.9759 32.5407 30.9759H32.4806ZM30.2554 31.3968C30.2554 30.1038 31.2477 29.1416 32.5407 29.1416C33.8337 29.1416 34.796 30.1038 34.796 31.3968C34.796 32.6899 33.8337 33.6822 32.5407 33.6822C31.2477 33.6822 30.2554 32.75 30.2554 31.3968ZM29.4736 30.9759C29.233 30.9759 29.0526 31.1563 29.0526 31.3968V31.457C29.0526 31.6975 29.233 31.878 29.4736 31.878H29.5337C29.7743 31.878 29.9547 31.6975 29.9547 31.457V31.3968C29.9547 31.1563 29.7743 30.9759 29.5337 30.9759H29.4736ZM27.2484 31.3968C27.2484 30.1038 28.2407 29.1416 29.5337 29.1416C30.8267 29.1416 31.789 30.1038 31.789 31.3968C31.789 32.6899 30.8267 33.6822 29.5337 33.6822C28.2407 33.6822 27.2484 32.75 27.2484 31.3968ZM26.4666 27.9689C26.2261 27.9689 26.0456 28.1493 26.0456 28.3899V28.45C26.0456 28.6906 26.2261 28.871 26.4666 28.871H26.5268C26.7673 28.871 26.9477 28.6906 26.9477 28.45V28.3899C26.9477 28.1493 26.7673 27.9689 26.5268 27.9689H26.4666ZM24.2414 28.3899C24.2414 27.0969 25.2337 26.1346 26.5268 26.1346C27.8198 26.1346 28.782 27.0969 28.782 28.3899C28.782 29.6829 27.8198 30.6752 26.5268 30.6752C25.2337 30.6752 24.2414 29.743 24.2414 28.3899ZM32.4806 21.9549C32.24 21.9549 32.0596 22.1353 32.0596 22.3759V22.436C32.0596 22.6766 32.24 22.857 32.4806 22.857H32.5407C32.7813 22.857 32.9617 22.6766 32.9617 22.436V22.3759C32.9617 22.1353 32.7813 21.9549 32.5407 21.9549H32.4806ZM30.2554 22.3759C30.2554 21.0829 31.2477 20.1207 32.5407 20.1207C33.8337 20.1207 34.796 21.0829 34.796 22.3759C34.796 23.6689 33.8337 24.6612 32.5407 24.6612C31.2477 24.6612 30.2554 23.729 30.2554 22.3759ZM41.5015 24.9619C41.261 24.9619 41.0805 25.1423 41.0805 25.3829V25.443C41.0805 25.6836 41.261 25.864 41.5015 25.864H41.5617C41.8022 25.864 41.9826 25.6836 41.9826 25.443V25.3829C41.9826 25.1423 41.8022 24.9619 41.5617 24.9619H41.5015ZM39.2764 25.3829C39.2764 24.0899 40.2687 23.1276 41.5617 23.1276C42.8547 23.1276 43.8169 24.0899 43.8169 25.3829C43.8169 26.6759 42.8547 27.6682 41.5617 27.6682C40.2687 27.6682 39.2764 26.736 39.2764 25.3829ZM38.4945 21.9549C38.254 21.9549 38.0736 22.1353 38.0736 22.3759V22.436C38.0736 22.6766 38.254 22.857 38.4945 22.857H38.5547C38.7952 22.857 38.9757 22.6766 38.9757 22.436V22.3759C38.9757 22.1353 38.7952 21.9549 38.5547 21.9549H38.4945ZM36.2694 22.3759C36.2694 21.0829 37.2617 20.1207 38.5547 20.1207C39.8477 20.1207 40.8099 21.0829 40.8099 22.3759C40.8099 23.6689 39.8477 24.6612 38.5547 24.6612C37.2617 24.6612 36.2694 23.729 36.2694 22.3759Z" fill="white"/>
<path d="M47.9842 27.9689C47.7436 27.9689 47.5632 28.1493 47.5632 28.3899V28.45C47.5632 28.6906 47.7436 28.871 47.9842 28.871H48.0443C48.2849 28.871 48.4653 28.6906 48.4653 28.45V28.3899C48.4653 28.1493 48.2849 27.9689 48.0443 27.9689H47.9842ZM45.759 28.3899C45.759 27.0969 46.7513 26.1346 48.0443 26.1346C49.3373 26.1346 50.2995 27.0969 50.2995 28.3899C50.2995 29.6829 49.3373 30.6752 48.0443 30.6752C46.7513 30.6752 45.759 29.743 45.759 28.3899ZM47.9842 30.9759C47.7436 30.9759 47.5632 31.1563 47.5632 31.3968V31.457C47.5632 31.6975 47.7436 31.878 47.9842 31.878H48.0443C48.2849 31.878 48.4653 31.6975 48.4653 31.457V31.3968C48.4653 31.1563 48.2849 30.9759 48.0443 30.9759H47.9842ZM45.759 31.3968C45.759 30.1038 46.7513 29.1416 48.0443 29.1416C49.3373 29.1416 50.2995 30.1038 50.2995 31.3968C50.2995 32.6899 49.3373 33.6822 48.0443 33.6822C46.7513 33.6822 45.759 32.75 45.759 31.3968ZM50.9911 30.9759C50.7506 30.9759 50.5702 31.1563 50.5702 31.3968V31.457C50.5702 31.6975 50.7506 31.878 50.9911 31.878H51.0513C51.2918 31.878 51.4723 31.6975 51.4723 31.457V31.3968C51.4723 31.1563 51.2918 30.9759 51.0513 30.9759H50.9911ZM48.766 31.3968C48.766 30.1038 49.7583 29.1416 51.0513 29.1416C52.3443 29.1416 53.3065 30.1038 53.3065 31.3968C53.3065 32.6899 52.3443 33.6822 51.0513 33.6822C49.7583 33.6822 48.766 32.75 48.766 31.3968ZM50.9911 27.9689C50.7506 27.9689 50.5702 28.1493 50.5702 28.3899V28.45C50.5702 28.6906 50.7506 28.871 50.9911 28.871H51.0513C51.2918 28.871 51.4723 28.6906 51.4723 28.45V28.3899C51.4723 28.1493 51.2918 27.9689 51.0513 27.9689H50.9911ZM48.766 28.3899C48.766 27.0969 49.7583 26.1346 51.0513 26.1346C52.3443 26.1346 53.3065 27.0969 53.3065 28.3899C53.3065 29.6829 52.3443 30.6752 51.0513 30.6752C49.7583 30.6752 48.766 29.743 48.766 28.3899ZM50.9911 33.9829C50.7506 33.9829 50.5702 34.1633 50.5702 34.4038V34.464C50.5702 34.7045 50.7506 34.8849 50.9911 34.8849H51.0513C51.2918 34.8849 51.4723 34.7045 51.4723 34.464V34.4038C51.4723 34.1633 51.2918 33.9829 51.0513 33.9829H50.9911ZM48.766 34.4038C48.766 33.1108 49.7583 32.1486 51.0513 32.1486C52.3443 32.1486 53.3065 33.1108 53.3065 34.4038C53.3065 35.6968 52.3443 36.6891 51.0513 36.6891C49.7583 36.6891 48.766 35.757 48.766 34.4038ZM47.9842 36.9898C47.7436 36.9898 47.5632 37.1703 47.5632 37.4108V37.471C47.5632 37.7115 47.7436 37.8919 47.9842 37.8919H48.0443C48.2849 37.8919 48.4653 37.7115 48.4653 37.471V37.4108C48.4653 37.1703 48.2849 36.9898 48.0443 36.9898H47.9842ZM45.759 37.4108C45.759 36.1178 46.7513 35.1556 48.0443 35.1556C49.3373 35.1556 50.2995 36.1178 50.2995 37.4108C50.2995 38.7038 49.3373 39.6961 48.0443 39.6961C46.7513 39.6961 45.759 38.764 45.759 37.4108Z" fill="white"/>
<path d="M63.644 12.934C63.4034 12.934 63.223 13.1144 63.223 13.355V13.4151C63.223 13.6557 63.4034 13.8361 63.644 13.8361H63.7041C63.9447 13.8361 64.1251 13.6557 64.1251 13.4151V13.355C64.1251 13.1144 63.9447 12.934 63.7041 12.934H63.644ZM61.4188 13.355C61.4188 12.062 62.4111 11.0997 63.7041 11.0997C64.9971 11.0997 65.9593 12.062 65.9593 13.355C65.9593 14.648 64.9971 15.6403 63.7041 15.6403C62.4111 15.6403 61.4188 14.7081 61.4188 13.355ZM66.6509 12.934C66.4104 12.934 66.23 13.1144 66.23 13.355V13.4151C66.23 13.6557 66.4104 13.8361 66.6509 13.8361H66.7111C66.9516 13.8361 67.1321 13.6557 67.1321 13.4151V13.355C67.1321 13.1144 66.9516 12.934 66.7111 12.934H66.6509ZM64.4258 13.355C64.4258 12.062 65.4181 11.0997 66.7111 11.0997C68.0041 11.0997 68.9663 12.062 68.9663 13.355C68.9663 14.648 68.0041 15.6403 66.7111 15.6403C65.4181 15.6403 64.4258 14.7081 64.4258 13.355ZM60.637 12.934C60.3964 12.934 60.216 13.1144 60.216 13.355V13.4151C60.216 13.6557 60.3964 13.8361 60.637 13.8361H60.6971C60.9377 13.8361 61.1181 13.6557 61.1181 13.4151V13.355C61.1181 13.1144 60.9377 12.934 60.6971 12.934H60.637ZM58.4118 13.355C58.4118 12.062 59.4041 11.0997 60.6971 11.0997C61.9901 11.0997 62.9524 12.062 62.9524 13.355C62.9524 14.648 61.9901 15.6403 60.6971 15.6403C59.4041 15.6403 58.4118 14.7081 58.4118 13.355ZM57.63 15.941C57.3894 15.941 57.209 16.1214 57.209 16.3619V16.4221C57.209 16.6626 57.3894 16.8431 57.63 16.8431H57.6901C57.9307 16.8431 58.1111 16.6626 58.1111 16.4221V16.3619C58.1111 16.1214 57.9307 15.941 57.6901 15.941H57.63ZM55.4048 16.3619C55.4048 15.0689 56.3971 14.1067 57.6901 14.1067C58.9831 14.1067 59.9454 15.0689 59.9454 16.3619C59.9454 17.6549 58.9831 18.6472 57.6901 18.6472C56.3971 18.6472 55.4048 17.7151 55.4048 16.3619ZM69.6579 12.934C69.4174 12.934 69.2369 13.1144 69.2369 13.355V13.4151C69.2369 13.6557 69.4174 13.8361 69.6579 13.8361H69.7181C69.9586 13.8361 70.139 13.6557 70.139 13.4151V13.355C70.139 13.1144 69.9586 12.934 69.7181 12.934H69.6579ZM67.4328 13.355C67.4328 12.062 68.4251 11.0997 69.7181 11.0997C71.0111 11.0997 71.9733 12.062 71.9733 13.355C71.9733 14.648 71.0111 15.6403 69.7181 15.6403C68.4251 15.6403 67.4328 14.7081 67.4328 13.355ZM72.6649 15.941C72.4243 15.941 72.2439 16.1214 72.2439 16.3619V16.4221C72.2439 16.6626 72.4243 16.8431 72.6649 16.8431H72.725C72.9656 16.8431 73.146 16.6626 73.146 16.4221V16.3619C73.146 16.1214 72.9656 15.941 72.725 15.941H72.6649ZM70.4397 16.3619C70.4397 15.0689 71.432 14.1067 72.725 14.1067C74.018 14.1067 74.9803 15.0689 74.9803 16.3619C74.9803 17.6549 74.018 18.6472 72.725 18.6472C71.432 18.6472 70.4397 17.7151 70.4397 16.3619ZM66.6509 21.9549C66.4104 21.9549 66.23 22.1353 66.23 22.3759V22.436C66.23 22.6766 66.4104 22.857 66.6509 22.857H66.7111C66.9516 22.857 67.1321 22.6766 67.1321 22.436V22.3759C67.1321 22.1353 66.9516 21.9549 66.7111 21.9549H66.6509ZM64.4258 22.3759C64.4258 21.0829 65.4181 20.1207 66.7111 20.1207C68.0041 20.1207 68.9663 21.0829 68.9663 22.3759C68.9663 23.6689 68.0041 24.6612 66.7111 24.6612C65.4181 24.6612 64.4258 23.729 64.4258 22.3759ZM63.644 21.9549C63.4034 21.9549 63.223 22.1353 63.223 22.3759V22.436C63.223 22.6766 63.4034 22.857 63.644 22.857H63.7041C63.9447 22.857 64.1251 22.6766 64.1251 22.436V22.3759C64.1251 22.1353 63.9447 21.9549 63.7041 21.9549H63.644ZM61.4188 22.3759C61.4188 21.0829 62.4111 20.1207 63.7041 20.1207C64.9971 20.1207 65.9593 21.0829 65.9593 22.3759C65.9593 23.6689 64.9971 24.6612 63.7041 24.6612C62.4111 24.6612 61.4188 23.729 61.4188 22.3759ZM57.63 27.9689C57.3894 27.9689 57.209 28.1493 57.209 28.3899V28.45C57.209 28.6906 57.3894 28.871 57.63 28.871H57.6901C57.9307 28.871 58.1111 28.6906 58.1111 28.45V28.3899C58.1111 28.1493 57.9307 27.9689 57.6901 27.9689H57.63ZM55.4048 28.3899C55.4048 27.0969 56.3971 26.1346 57.6901 26.1346C58.9831 26.1346 59.9454 27.0969 59.9454 28.3899C59.9454 29.6829 58.9831 30.6752 57.6901 30.6752C56.3971 30.6752 55.4048 29.743 55.4048 28.3899ZM57.63 30.9759C57.3894 30.9759 57.209 31.1563 57.209 31.3968V31.457C57.209 31.6975 57.3894 31.878 57.63 31.878H57.6901C57.9307 31.878 58.1111 31.6975 58.1111 31.457V31.3968C58.1111 31.1563 57.9307 30.9759 57.6901 30.9759H57.63ZM55.4048 31.3968C55.4048 30.1038 56.3971 29.1416 57.6901 29.1416C58.9831 29.1416 59.9454 30.1038 59.9454 31.3968C59.9454 32.6899 58.9831 33.6822 57.6901 33.6822C56.3971 33.6822 55.4048 32.75 55.4048 31.3968ZM60.637 30.9759C60.3964 30.9759 60.216 31.1563 60.216 31.3968V31.457C60.216 31.6975 60.3964 31.878 60.637 31.878H60.6971C60.9377 31.878 61.1181 31.6975 61.1181 31.457V31.3968C61.1181 31.1563 60.9377 30.9759 60.6971 30.9759H60.637ZM58.4118 31.3968C58.4118 30.1038 59.4041 29.1416 60.6971 29.1416C61.9901 29.1416 62.9524 30.1038 62.9524 31.3968C62.9524 32.6899 61.9901 33.6822 60.6971 33.6822C59.4041 33.6822 58.4118 32.75 58.4118 31.3968ZM63.644 30.9759C63.4034 30.9759 63.223 31.1563 63.223 31.3968V31.457C63.223 31.6975 63.4034 31.878 63.644 31.878H63.7041C63.9447 31.878 64.1251 31.6975 64.1251 31.457V31.3968C64.1251 31.1563 63.9447 30.9759 63.7041 30.9759H63.644ZM61.4188 31.3968C61.4188 30.1038 62.4111 29.1416 63.7041 29.1416C64.9971 29.1416 65.9593 30.1038 65.9593 31.3968C65.9593 32.6899 64.9971 33.6822 63.7041 33.6822C62.4111 33.6822 61.4188 32.75 61.4188 31.3968ZM66.6509 30.9759C66.4104 30.9759 66.23 31.1563 66.23 31.3968V31.457C66.23 31.6975 66.4104 31.878 66.6509 31.878H66.7111C66.9516 31.878 67.1321 31.6975 67.1321 31.457V31.3968C67.1321 31.1563 66.9516 30.9759 66.7111 30.9759H66.6509ZM64.4258 31.3968C64.4258 30.1038 65.4181 29.1416 66.7111 29.1416C68.0041 29.1416 68.9663 30.1038 68.9663 31.3968C68.9663 32.6899 68.0041 33.6822 66.7111 33.6822C65.4181 33.6822 64.4258 32.75 64.4258 31.3968ZM69.6579 30.9759C69.4174 30.9759 69.2369 31.1563 69.2369 31.3968V31.457C69.2369 31.6975 69.4174 31.878 69.6579 31.878H69.7181C69.9586 31.878 70.139 31.6975 70.139 31.457V31.3968C70.139 31.1563 69.9586 30.9759 69.7181 30.9759H69.6579ZM67.4328 31.3968C67.4328 30.1038 68.4251 29.1416 69.7181 29.1416C71.0111 29.1416 71.9733 30.1038 71.9733 31.3968C71.9733 32.6899 71.0111 33.6822 69.7181 33.6822C68.4251 33.6822 67.4328 32.75 67.4328 31.3968ZM72.6649 18.9479C72.4243 18.9479 72.2439 19.1284 72.2439 19.3689V19.4291C72.2439 19.6696 72.4243 19.85 72.6649 19.85H72.725C72.9656 19.85 73.146 19.6696 73.146 19.4291V19.3689C73.146 19.1284 72.9656 18.9479 72.725 18.9479H72.6649ZM70.4397 19.3689C70.4397 18.0759 71.432 17.1137 72.725 17.1137C74.018 17.1137 74.9803 18.0759 74.9803 19.3689C74.9803 20.6619 74.018 21.6542 72.725 21.6542C71.432 21.6542 70.4397 20.7221 70.4397 19.3689ZM69.6579 21.9549C69.4174 21.9549 69.2369 22.1353 69.2369 22.3759V22.436C69.2369 22.6766 69.4174 22.857 69.6579 22.857H69.7181C69.9586 22.857 70.139 22.6766 70.139 22.436V22.3759C70.139 22.1353 69.9586 21.9549 69.7181 21.9549H69.6579ZM67.4328 22.3759C67.4328 21.0829 68.4251 20.1207 69.7181 20.1207C71.0111 20.1207 71.9733 21.0829 71.9733 22.3759C71.9733 23.6689 71.0111 24.6612 69.7181 24.6612C68.4251 24.6612 67.4328 23.729 67.4328 22.3759ZM72.6649 30.9759C72.4243 30.9759 72.2439 31.1563 72.2439 31.3968V31.457C72.2439 31.6975 72.4243 31.878 72.6649 31.878H72.725C72.9656 31.878 73.146 31.6975 73.146 31.457V31.3968C73.146 31.1563 72.9656 30.9759 72.725 30.9759H72.6649ZM70.4397 31.3968C70.4397 30.1038 71.432 29.1416 72.725 29.1416C74.018 29.1416 74.9803 30.1038 74.9803 31.3968C74.9803 32.6899 74.018 33.6822 72.725 33.6822C71.432 33.6822 70.4397 32.75 70.4397 31.3968ZM60.637 24.9619C60.3964 24.9619 60.216 25.1423 60.216 25.3829V25.443C60.216 25.6836 60.3964 25.864 60.637 25.864H60.6971C60.9377 25.864 61.1181 25.6836 61.1181 25.443V25.3829C61.1181 25.1423 60.9377 24.9619 60.6971 24.9619H60.637ZM58.4118 25.3829C58.4118 24.0899 59.4041 23.1276 60.6971 23.1276C61.9901 23.1276 62.9524 24.0899 62.9524 25.3829C62.9524 26.6759 61.9901 27.6682 60.6971 27.6682C59.4041 27.6682 58.4118 26.736 58.4118 25.3829Z" fill="white"/>
<path d="M79.4482 15.941C79.2077 15.941 79.0273 16.1214 79.0273 16.3619V16.4221C79.0273 16.6626 79.2077 16.8431 79.4482 16.8431H79.5084C79.7489 16.8431 79.9293 16.6626 79.9293 16.4221V16.3619C79.9293 16.1214 79.7489 15.941 79.5084 15.941H79.4482ZM77.2231 16.3619C77.2231 15.0689 78.2154 14.1067 79.5084 14.1067C80.8014 14.1067 81.7636 15.0689 81.7636 16.3619C81.7636 17.6549 80.8014 18.6472 79.5084 18.6472C78.2154 18.6472 77.2231 17.7151 77.2231 16.3619ZM82.4552 12.934C82.2146 12.934 82.0342 13.1144 82.0342 13.355V13.4151C82.0342 13.6557 82.2146 13.8361 82.4552 13.8361H82.5154C82.7559 13.8361 82.9363 13.6557 82.9363 13.4151V13.355C82.9363 13.1144 82.7559 12.934 82.5154 12.934H82.4552ZM80.23 13.355C80.23 12.062 81.2223 11.0997 82.5154 11.0997C83.8084 11.0997 84.7706 12.062 84.7706 13.355C84.7706 14.648 83.8084 15.6403 82.5154 15.6403C81.2223 15.6403 80.23 14.7081 80.23 13.355ZM85.4622 12.934C85.2216 12.934 85.0412 13.1144 85.0412 13.355V13.4151C85.0412 13.6557 85.2216 13.8361 85.4622 13.8361H85.5223C85.7629 13.8361 85.9433 13.6557 85.9433 13.4151V13.355C85.9433 13.1144 85.7629 12.934 85.5223 12.934H85.4622ZM83.237 13.355C83.237 12.062 84.2293 11.0997 85.5223 11.0997C86.8153 11.0997 87.7776 12.062 87.7776 13.355C87.7776 14.648 86.8153 15.6403 85.5223 15.6403C84.2293 15.6403 83.237 14.7081 83.237 13.355ZM88.4692 12.934C88.2286 12.934 88.0482 13.1144 88.0482 13.355V13.4151C88.0482 13.6557 88.2286 13.8361 88.4692 13.8361H88.5293C88.7699 13.8361 88.9503 13.6557 88.9503 13.4151V13.355C88.9503 13.1144 88.7699 12.934 88.5293 12.934H88.4692ZM86.244 13.355C86.244 12.062 87.2363 11.0997 88.5293 11.0997C89.8223 11.0997 90.7846 12.062 90.7846 13.355C90.7846 14.648 89.8223 15.6403 88.5293 15.6403C87.2363 15.6403 86.244 14.7081 86.244 13.355ZM91.4762 12.934C91.2356 12.934 91.0552 13.1144 91.0552 13.355V13.4151C91.0552 13.6557 91.2356 13.8361 91.4762 13.8361H91.5363C91.7769 13.8361 91.9573 13.6557 91.9573 13.4151V13.355C91.9573 13.1144 91.7769 12.934 91.5363 12.934H91.4762ZM89.251 13.355C89.251 12.062 90.2433 11.0997 91.5363 11.0997C92.8293 11.0997 93.7915 12.062 93.7915 13.355C93.7915 14.648 92.8293 15.6403 91.5363 15.6403C90.2433 15.6403 89.251 14.7081 89.251 13.355ZM94.4831 15.941C94.2426 15.941 94.0622 16.1214 94.0622 16.3619V16.4221C94.0622 16.6626 94.2426 16.8431 94.4831 16.8431H94.5433C94.7838 16.8431 94.9643 16.6626 94.9643 16.4221V16.3619C94.9643 16.1214 94.7838 15.941 94.5433 15.941H94.4831ZM92.258 16.3619C92.258 15.0689 93.2503 14.1067 94.5433 14.1067C95.8363 14.1067 96.7985 15.0689 96.7985 16.3619C96.7985 17.6549 95.8363 18.6472 94.5433 18.6472C93.2503 18.6472 92.258 17.7151 92.258 16.3619ZM94.4831 18.9479C94.2426 18.9479 94.0622 19.1284 94.0622 19.3689V19.4291C94.0622 19.6696 94.2426 19.85 94.4831 19.85H94.5433C94.7838 19.85 94.9643 19.6696 94.9643 19.4291V19.3689C94.9643 19.1284 94.7838 18.9479 94.5433 18.9479H94.4831ZM92.258 19.3689C92.258 18.0759 93.2503 17.1137 94.5433 17.1137C95.8363 17.1137 96.7985 18.0759 96.7985 19.3689C96.7985 20.6619 95.8363 21.6542 94.5433 21.6542C93.2503 21.6542 92.258 20.7221 92.258 19.3689ZM88.4692 21.9549C88.2286 21.9549 88.0482 22.1353 88.0482 22.3759V22.436C88.0482 22.6766 88.2286 22.857 88.4692 22.857H88.5293C88.7699 22.857 88.9503 22.6766 88.9503 22.436V22.3759C88.9503 22.1353 88.7699 21.9549 88.5293 21.9549H88.4692ZM86.244 22.3759C86.244 21.0829 87.2363 20.1207 88.5293 20.1207C89.8223 20.1207 90.7846 21.0829 90.7846 22.3759C90.7846 23.6689 89.8223 24.6612 88.5293 24.6612C87.2363 24.6612 86.244 23.729 86.244 22.3759ZM94.4831 27.9689C94.2426 27.9689 94.0622 28.1493 94.0622 28.3899V28.45C94.0622 28.6906 94.2426 28.871 94.4831 28.871H94.5433C94.7838 28.871 94.9643 28.6906 94.9643 28.45V28.3899C94.9643 28.1493 94.7838 27.9689 94.5433 27.9689H94.4831ZM92.258 28.3899C92.258 27.0969 93.2503 26.1346 94.5433 26.1346C95.8363 26.1346 96.7985 27.0969 96.7985 28.3899C96.7985 29.6829 95.8363 30.6752 94.5433 30.6752C93.2503 30.6752 92.258 29.743 92.258 28.3899ZM91.4762 30.9759C91.2356 30.9759 91.0552 31.1563 91.0552 31.3968V31.457C91.0552 31.6975 91.2356 31.878 91.4762 31.878H91.5363C91.7769 31.878 91.9573 31.6975 91.9573 31.457V31.3968C91.9573 31.1563 91.7769 30.9759 91.5363 30.9759H91.4762ZM89.251 31.3968C89.251 30.1038 90.2433 29.1416 91.5363 29.1416C92.8293 29.1416 93.7915 30.1038 93.7915 31.3968C93.7915 32.6899 92.8293 33.6822 91.5363 33.6822C90.2433 33.6822 89.251 32.75 89.251 31.3968ZM88.4692 30.9759C88.2286 30.9759 88.0482 31.1563 88.0482 31.3968V31.457C88.0482 31.6975 88.2286 31.878 88.4692 31.878H88.5293C88.7699 31.878 88.9503 31.6975 88.9503 31.457V31.3968C88.9503 31.1563 88.7699 30.9759 88.5293 30.9759H88.4692ZM86.244 31.3968C86.244 30.1038 87.2363 29.1416 88.5293 29.1416C89.8223 29.1416 90.7846 30.1038 90.7846 31.3968C90.7846 32.6899 89.8223 33.6822 88.5293 33.6822C87.2363 33.6822 86.244 32.75 86.244 31.3968ZM85.4622 30.9759C85.2216 30.9759 85.0412 31.1563 85.0412 31.3968V31.457C85.0412 31.6975 85.2216 31.878 85.4622 31.878H85.5223C85.7629 31.878 85.9433 31.6975 85.9433 31.457V31.3968C85.9433 31.1563 85.7629 30.9759 85.5223 30.9759H85.4622ZM83.237 31.3968C83.237 30.1038 84.2293 29.1416 85.5223 29.1416C86.8153 29.1416 87.7776 30.1038 87.7776 31.3968C87.7776 32.6899 86.8153 33.6822 85.5223 33.6822C84.2293 33.6822 83.237 32.75 83.237 31.3968ZM82.4552 30.9759C82.2146 30.9759 82.0342 31.1563 82.0342 31.3968V31.457C82.0342 31.6975 82.2146 31.878 82.4552 31.878H82.5154C82.7559 31.878 82.9363 31.6975 82.9363 31.457V31.3968C82.9363 31.1563 82.7559 30.9759 82.5154 30.9759H82.4552ZM80.23 31.3968C80.23 30.1038 81.2223 29.1416 82.5154 29.1416C83.8084 29.1416 84.7706 30.1038 84.7706 31.3968C84.7706 32.6899 83.8084 33.6822 82.5154 33.6822C81.2223 33.6822 80.23 32.75 80.23 31.3968ZM79.4482 27.9689C79.2077 27.9689 79.0273 28.1493 79.0273 28.3899V28.45C79.0273 28.6906 79.2077 28.871 79.4482 28.871H79.5084C79.7489 28.871 79.9293 28.6906 79.9293 28.45V28.3899C79.9293 28.1493 79.7489 27.9689 79.5084 27.9689H79.4482ZM77.2231 28.3899C77.2231 27.0969 78.2154 26.1346 79.5084 26.1346C80.8014 26.1346 81.7636 27.0969 81.7636 28.3899C81.7636 29.6829 80.8014 30.6752 79.5084 30.6752C78.2154 30.6752 77.2231 29.743 77.2231 28.3899ZM85.4622 21.9549C85.2216 21.9549 85.0412 22.1353 85.0412 22.3759V22.436C85.0412 22.6766 85.2216 22.857 85.4622 22.857H85.5223C85.7629 22.857 85.9433 22.6766 85.9433 22.436V22.3759C85.9433 22.1353 85.7629 21.9549 85.5223 21.9549H85.4622ZM83.237 22.3759C83.237 21.0829 84.2293 20.1207 85.5223 20.1207C86.8153 20.1207 87.7776 21.0829 87.7776 22.3759C87.7776 23.6689 86.8153 24.6612 85.5223 24.6612C84.2293 24.6612 83.237 23.729 83.237 22.3759ZM94.4831 24.9619C94.2426 24.9619 94.0622 25.1423 94.0622 25.3829V25.443C94.0622 25.6836 94.2426 25.864 94.4831 25.864H94.5433C94.7838 25.864 94.9643 25.6836 94.9643 25.443V25.3829C94.9643 25.1423 94.7838 24.9619 94.5433 24.9619H94.4831ZM92.258 25.3829C92.258 24.0899 93.2503 23.1276 94.5433 23.1276C95.8363 23.1276 96.7985 24.0899 96.7985 25.3829C96.7985 26.6759 95.8363 27.6682 94.5433 27.6682C93.2503 27.6682 92.258 26.736 92.258 25.3829ZM91.4762 21.9549C91.2356 21.9549 91.0552 22.1353 91.0552 22.3759V22.436C91.0552 22.6766 91.2356 22.857 91.4762 22.857H91.5363C91.7769 22.857 91.9573 22.6766 91.9573 22.436V22.3759C91.9573 22.1353 91.7769 21.9549 91.5363 21.9549H91.4762ZM89.251 22.3759C89.251 21.0829 90.2433 20.1207 91.5363 20.1207C92.8293 20.1207 93.7915 21.0829 93.7915 22.3759C93.7915 23.6689 92.8293 24.6612 91.5363 24.6612C90.2433 24.6612 89.251 23.729 89.251 22.3759Z" fill="white"/>
<path d="M107.28 12.934C107.04 12.934 106.859 13.1144 106.859 13.355V13.4151C106.859 13.6557 107.04 13.8361 107.28 13.8361H107.341C107.581 13.8361 107.762 13.6557 107.762 13.4151V13.355C107.762 13.1144 107.581 12.934 107.341 12.934H107.28ZM105.055 13.355C105.055 12.062 106.048 11.0997 107.341 11.0997C108.634 11.0997 109.596 12.062 109.596 13.355C109.596 14.648 108.634 15.6403 107.341 15.6403C106.048 15.6403 105.055 14.7081 105.055 13.355ZM110.287 12.934C110.047 12.934 109.866 13.1144 109.866 13.355V13.4151C109.866 13.6557 110.047 13.8361 110.287 13.8361H110.348C110.588 13.8361 110.769 13.6557 110.769 13.4151V13.355C110.769 13.1144 110.588 12.934 110.348 12.934H110.287ZM108.062 13.355C108.062 12.062 109.055 11.0997 110.348 11.0997C111.641 11.0997 112.603 12.062 112.603 13.355C112.603 14.648 111.641 15.6403 110.348 15.6403C109.055 15.6403 108.062 14.7081 108.062 13.355ZM104.273 12.934C104.033 12.934 103.852 13.1144 103.852 13.355V13.4151C103.852 13.6557 104.033 13.8361 104.273 13.8361H104.334C104.574 13.8361 104.755 13.6557 104.755 13.4151V13.355C104.755 13.1144 104.574 12.934 104.334 12.934H104.273ZM102.048 13.355C102.048 12.062 103.041 11.0997 104.334 11.0997C105.627 11.0997 106.589 12.062 106.589 13.355C106.589 14.648 105.627 15.6403 104.334 15.6403C103.041 15.6403 102.048 14.7081 102.048 13.355ZM101.266 15.941C101.026 15.941 100.845 16.1214 100.845 16.3619V16.4221C100.845 16.6626 101.026 16.8431 101.266 16.8431H101.327C101.567 16.8431 101.748 16.6626 101.748 16.4221V16.3619C101.748 16.1214 101.567 15.941 101.327 15.941H101.266ZM99.0413 16.3619C99.0413 15.0689 100.034 14.1067 101.327 14.1067C102.62 14.1067 103.582 15.0689 103.582 16.3619C103.582 17.6549 102.62 18.6472 101.327 18.6472C100.034 18.6472 99.0413 17.7151 99.0413 16.3619ZM113.294 12.934C113.054 12.934 112.873 13.1144 112.873 13.355V13.4151C112.873 13.6557 113.054 13.8361 113.294 13.8361H113.355C113.595 13.8361 113.776 13.6557 113.776 13.4151V13.355C113.776 13.1144 113.595 12.934 113.355 12.934H113.294ZM111.069 13.355C111.069 12.062 112.062 11.0997 113.355 11.0997C114.648 11.0997 115.61 12.062 115.61 13.355C115.61 14.648 114.648 15.6403 113.355 15.6403C112.062 15.6403 111.069 14.7081 111.069 13.355ZM116.301 15.941C116.061 15.941 115.88 16.1214 115.88 16.3619V16.4221C115.88 16.6626 116.061 16.8431 116.301 16.8431H116.362C116.602 16.8431 116.783 16.6626 116.783 16.4221V16.3619C116.783 16.1214 116.602 15.941 116.362 15.941H116.301ZM114.076 16.3619C114.076 15.0689 115.069 14.1067 116.362 14.1067C117.655 14.1067 118.617 15.0689 118.617 16.3619C118.617 17.6549 117.655 18.6472 116.362 18.6472C115.069 18.6472 114.076 17.7151 114.076 16.3619ZM110.287 21.9549C110.047 21.9549 109.866 22.1353 109.866 22.3759V22.436C109.866 22.6766 110.047 22.857 110.287 22.857H110.348C110.588 22.857 110.769 22.6766 110.769 22.436V22.3759C110.769 22.1353 110.588 21.9549 110.348 21.9549H110.287ZM108.062 22.3759C108.062 21.0829 109.055 20.1207 110.348 20.1207C111.641 20.1207 112.603 21.0829 112.603 22.3759C112.603 23.6689 111.641 24.6612 110.348 24.6612C109.055 24.6612 108.062 23.729 108.062 22.3759ZM107.28 21.9549C107.04 21.9549 106.859 22.1353 106.859 22.3759V22.436C106.859 22.6766 107.04 22.857 107.28 22.857H107.341C107.581 22.857 107.762 22.6766 107.762 22.436V22.3759C107.762 22.1353 107.581 21.9549 107.341 21.9549H107.28ZM105.055 22.3759C105.055 21.0829 106.048 20.1207 107.341 20.1207C108.634 20.1207 109.596 21.0829 109.596 22.3759C109.596 23.6689 108.634 24.6612 107.341 24.6612C106.048 24.6612 105.055 23.729 105.055 22.3759ZM101.266 27.9689C101.026 27.9689 100.845 28.1493 100.845 28.3899V28.45C100.845 28.6906 101.026 28.871 101.266 28.871H101.327C101.567 28.871 101.748 28.6906 101.748 28.45V28.3899C101.748 28.1493 101.567 27.9689 101.327 27.9689H101.266ZM99.0413 28.3899C99.0413 27.0969 100.034 26.1346 101.327 26.1346C102.62 26.1346 103.582 27.0969 103.582 28.3899C103.582 29.6829 102.62 30.6752 101.327 30.6752C100.034 30.6752 99.0413 29.743 99.0413 28.3899ZM101.266 30.9759C101.026 30.9759 100.845 31.1563 100.845 31.3968V31.457C100.845 31.6975 101.026 31.878 101.266 31.878H101.327C101.567 31.878 101.748 31.6975 101.748 31.457V31.3968C101.748 31.1563 101.567 30.9759 101.327 30.9759H101.266ZM99.0413 31.3968C99.0413 30.1038 100.034 29.1416 101.327 29.1416C102.62 29.1416 103.582 30.1038 103.582 31.3968C103.582 32.6899 102.62 33.6822 101.327 33.6822C100.034 33.6822 99.0413 32.75 99.0413 31.3968ZM104.273 30.9759C104.033 30.9759 103.852 31.1563 103.852 31.3968V31.457C103.852 31.6975 104.033 31.878 104.273 31.878H104.334C104.574 31.878 104.755 31.6975 104.755 31.457V31.3968C104.755 31.1563 104.574 30.9759 104.334 30.9759H104.273ZM102.048 31.3968C102.048 30.1038 103.041 29.1416 104.334 29.1416C105.627 29.1416 106.589 30.1038 106.589 31.3968C106.589 32.6899 105.627 33.6822 104.334 33.6822C103.041 33.6822 102.048 32.75 102.048 31.3968ZM107.28 30.9759C107.04 30.9759 106.859 31.1563 106.859 31.3968V31.457C106.859 31.6975 107.04 31.878 107.28 31.878H107.341C107.581 31.878 107.762 31.6975 107.762 31.457V31.3968C107.762 31.1563 107.581 30.9759 107.341 30.9759H107.28ZM105.055 31.3968C105.055 30.1038 106.048 29.1416 107.341 29.1416C108.634 29.1416 109.596 30.1038 109.596 31.3968C109.596 32.6899 108.634 33.6822 107.341 33.6822C106.048 33.6822 105.055 32.75 105.055 31.3968ZM110.287 30.9759C110.047 30.9759 109.866 31.1563 109.866 31.3968V31.457C109.866 31.6975 110.047 31.878 110.287 31.878H110.348C110.588 31.878 110.769 31.6975 110.769 31.457V31.3968C110.769 31.1563 110.588 30.9759 110.348 30.9759H110.287ZM108.062 31.3968C108.062 30.1038 109.055 29.1416 110.348 29.1416C111.641 29.1416 112.603 30.1038 112.603 31.3968C112.603 32.6899 111.641 33.6822 110.348 33.6822C109.055 33.6822 108.062 32.75 108.062 31.3968ZM113.294 30.9759C113.054 30.9759 112.873 31.1563 112.873 31.3968V31.457C112.873 31.6975 113.054 31.878 113.294 31.878H113.355C113.595 31.878 113.776 31.6975 113.776 31.457V31.3968C113.776 31.1563 113.595 30.9759 113.355 30.9759H113.294ZM111.069 31.3968C111.069 30.1038 112.062 29.1416 113.355 29.1416C114.648 29.1416 115.61 30.1038 115.61 31.3968C115.61 32.6899 114.648 33.6822 113.355 33.6822C112.062 33.6822 111.069 32.75 111.069 31.3968ZM116.301 18.9479C116.061 18.9479 115.88 19.1284 115.88 19.3689V19.4291C115.88 19.6696 116.061 19.85 116.301 19.85H116.362C116.602 19.85 116.783 19.6696 116.783 19.4291V19.3689C116.783 19.1284 116.602 18.9479 116.362 18.9479H116.301ZM114.076 19.3689C114.076 18.0759 115.069 17.1137 116.362 17.1137C117.655 17.1137 118.617 18.0759 118.617 19.3689C118.617 20.6619 117.655 21.6542 116.362 21.6542C115.069 21.6542 114.076 20.7221 114.076 19.3689ZM113.294 21.9549C113.054 21.9549 112.873 22.1353 112.873 22.3759V22.436C112.873 22.6766 113.054 22.857 113.294 22.857H113.355C113.595 22.857 113.776 22.6766 113.776 22.436V22.3759C113.776 22.1353 113.595 21.9549 113.355 21.9549H113.294ZM111.069 22.3759C111.069 21.0829 112.062 20.1207 113.355 20.1207C114.648 20.1207 115.61 21.0829 115.61 22.3759C115.61 23.6689 114.648 24.6612 113.355 24.6612C112.062 24.6612 111.069 23.729 111.069 22.3759ZM116.301 30.9759C116.061 30.9759 115.88 31.1563 115.88 31.3968V31.457C115.88 31.6975 116.061 31.878 116.301 31.878H116.362C116.602 31.878 116.783 31.6975 116.783 31.457V31.3968C116.783 31.1563 116.602 30.9759 116.362 30.9759H116.301ZM114.076 31.3968C114.076 30.1038 115.069 29.1416 116.362 29.1416C117.655 29.1416 118.617 30.1038 118.617 31.3968C118.617 32.6899 117.655 33.6822 116.362 33.6822C115.069 33.6822 114.076 32.75 114.076 31.3968ZM104.273 24.9619C104.033 24.9619 103.852 25.1423 103.852 25.3829V25.443C103.852 25.6836 104.033 25.864 104.273 25.864H104.334C104.574 25.864 104.755 25.6836 104.755 25.443V25.3829C104.755 25.1423 104.574 24.9619 104.334 24.9619H104.273ZM102.048 25.3829C102.048 24.0899 103.041 23.1276 104.334 23.1276C105.627 23.1276 106.589 24.0899 106.589 25.3829C106.589 26.6759 105.627 27.6682 104.334 27.6682C103.041 27.6682 102.048 26.736 102.048 25.3829Z" fill="white"/>
<path d="M44.016 4.17161L42.8083 0.304699H43.4232L44.2376 2.84201L44.4481 3.67855L44.6531 2.84755L45.473 0.304699H46.0713L44.8636 4.17161H44.016Z" fill="white"/>
<path d="M47.7355 4.17161V1.12462H48.295V4.17161H47.7355ZM46.6109 4.17161V3.71733H49.3421V4.17161H46.6109ZM47.0153 1.5789V1.12462H48.0125V1.5789H47.0153ZM47.6967 0.603859V0H48.3227V0.603859H47.6967Z" fill="white"/>
<path d="M51.6157 4.23809C51.346 4.23809 51.1078 4.19192 50.901 4.09959C50.6979 4.00356 50.5409 3.87061 50.4301 3.70071C50.3193 3.52713 50.2621 3.3203 50.2584 3.08023H50.7847C50.7847 3.30553 50.8604 3.48281 51.0118 3.61207C51.1632 3.74134 51.3627 3.80597 51.6101 3.80597C51.8206 3.80597 51.9887 3.76719 52.1143 3.68963C52.2435 3.60838 52.3082 3.49943 52.3082 3.36277C52.3082 3.25567 52.2712 3.17072 52.1974 3.10793C52.1272 3.04145 52.033 2.98975 51.9148 2.95281C51.7966 2.91588 51.6655 2.88449 51.5215 2.85863C51.3811 2.82909 51.2389 2.79585 51.0949 2.75891C50.9546 2.71829 50.8253 2.66843 50.7071 2.60933C50.5889 2.54655 50.4929 2.46345 50.419 2.36003C50.3452 2.25662 50.3082 2.12182 50.3082 1.95562C50.3082 1.78203 50.3581 1.62876 50.4578 1.4958C50.5575 1.35914 50.6979 1.25204 50.8788 1.17448C51.0635 1.09692 51.2814 1.05814 51.5326 1.05814C51.913 1.05814 52.2177 1.14678 52.4467 1.32406C52.6793 1.49764 52.8049 1.73771 52.8234 2.04426H52.2971C52.286 1.86698 52.2121 1.73032 52.0755 1.6343C51.9425 1.53458 51.7615 1.48472 51.5326 1.48472C51.3183 1.48472 51.154 1.52719 51.0395 1.61214C50.9287 1.69708 50.8733 1.80419 50.8733 1.93346C50.8733 2.03318 50.9102 2.11258 50.9841 2.17168C51.058 2.22708 51.154 2.2714 51.2722 2.30464C51.3904 2.33418 51.5196 2.36188 51.66 2.38773C51.804 2.40989 51.9462 2.43944 52.0866 2.47637C52.2306 2.51331 52.3617 2.56501 52.4799 2.63149C52.5981 2.69428 52.6923 2.78107 52.7624 2.89187C52.8363 3.00267 52.8732 3.14671 52.8732 3.32399C52.8732 3.60838 52.7587 3.83183 52.5298 3.99433C52.3008 4.15684 51.9961 4.23809 51.6157 4.23809Z" fill="white"/>
<path d="M55.8781 4.17161L55.8559 3.47911V2.17722C55.8559 1.95931 55.7839 1.78942 55.6399 1.66754C55.4995 1.54196 55.3056 1.47918 55.0582 1.47918C54.8181 1.47918 54.6223 1.53458 54.4709 1.64538C54.3195 1.75248 54.2364 1.90206 54.2216 2.09412H53.6732C53.6916 1.87621 53.7618 1.69154 53.8837 1.54012C54.0056 1.385 54.1681 1.26681 54.3712 1.18556C54.5743 1.10061 54.8089 1.05814 55.0748 1.05814C55.3481 1.05814 55.5845 1.1043 55.7839 1.19664C55.9833 1.28528 56.1366 1.41454 56.2437 1.58444C56.3545 1.75433 56.4099 1.96116 56.4099 2.20492V4.17161H55.8781ZM54.7756 4.23809C54.5762 4.23809 54.4007 4.203 54.2493 4.13283C54.0979 4.05896 53.9797 3.95555 53.8948 3.82259C53.8098 3.68594 53.7673 3.52713 53.7673 3.34615C53.7673 3.03222 53.8874 2.78846 54.1274 2.61487C54.3712 2.44129 54.711 2.3545 55.1468 2.3545H55.9279V2.76999H55.1246C54.8735 2.76999 54.6759 2.81801 54.5319 2.91403C54.3915 3.01006 54.3213 3.14487 54.3213 3.31845C54.3213 3.46249 54.3712 3.57514 54.4709 3.65639C54.5743 3.73765 54.7128 3.77827 54.8864 3.77827C55.108 3.77827 55.3038 3.71918 55.4737 3.60099C55.6472 3.47911 55.7876 3.31291 55.8947 3.10239L55.9556 3.51235C55.8596 3.74503 55.7119 3.92416 55.5124 4.04973C55.313 4.1753 55.0674 4.23809 54.7756 4.23809Z" fill="white"/>
<path d="M61.7049 2.17722L61.3504 1.91684L61.849 1.33514L61.1121 1.13016L61.2506 0.725738L61.9487 0.975038V0.238219H62.3974V0.975038L63.1065 0.725738L63.245 1.13016L62.5027 1.33514L63.0179 1.92238L62.6578 2.18276L62.1758 1.5789L61.7049 2.17722Z" fill="white"/>
<path d="M66.0615 4.17161V3.24643H64.1447V2.83093L65.851 0.304699H66.6598V2.74783H67.3136V3.24643H66.6598V4.17161H66.0615ZM64.7652 2.74783H66.0615V1.58444L66.0726 0.786678L65.6405 1.46256L64.7652 2.74783Z" fill="white"/>
<path d="M69.2713 4.23809C68.998 4.23809 68.758 4.19008 68.5511 4.09405C68.3443 3.99433 68.1818 3.85953 68.0636 3.68963C67.9491 3.51974 67.8919 3.32584 67.8919 3.10793C67.8919 2.94912 67.9251 2.80508 67.9916 2.67581C68.0581 2.54655 68.1504 2.4339 68.2686 2.33787C68.3868 2.24185 68.5253 2.17168 68.6841 2.12736H69.8586C70.0137 2.17168 70.1504 2.24185 70.2685 2.33787C70.3904 2.4339 70.4846 2.54655 70.5511 2.67581C70.6176 2.80139 70.6508 2.94173 70.6508 3.09685C70.6508 3.32215 70.5917 3.52159 70.4735 3.69517C70.359 3.86507 70.1984 3.99802 69.9915 4.09405C69.7847 4.19008 69.5446 4.23809 69.2713 4.23809ZM69.2713 3.73949C69.4154 3.73949 69.5446 3.71179 69.6591 3.65639C69.7773 3.60099 69.8697 3.52343 69.9361 3.42371C70.0026 3.32399 70.0359 3.2095 70.0359 3.08023C70.0359 2.95835 70.0026 2.85125 69.9361 2.75891C69.8733 2.66289 69.7829 2.58533 69.6647 2.52623C69.5502 2.46714 69.4191 2.43205 69.2713 2.42097C69.1236 2.43205 68.9925 2.46714 68.878 2.52623C68.7635 2.58533 68.673 2.66289 68.6065 2.75891C68.5401 2.85125 68.5068 2.9602 68.5068 3.08577C68.5068 3.21504 68.5401 3.32953 68.6065 3.42925C68.673 3.52528 68.7635 3.60099 68.878 3.65639C68.9962 3.71179 69.1273 3.73949 69.2713 3.73949ZM69.2713 1.9667C69.408 1.95562 69.5299 1.92422 69.637 1.87252C69.7441 1.81712 69.829 1.7451 69.8918 1.65646C69.9546 1.56782 69.986 1.46256 69.986 1.34068C69.986 1.15601 69.9177 1.00828 69.781 0.897478C69.6481 0.782985 69.4782 0.725738 69.2713 0.725738C69.0645 0.725738 68.8928 0.782985 68.7561 0.897478C68.6232 1.00828 68.5567 1.15601 68.5567 1.34068C68.5567 1.46256 68.5881 1.56782 68.6509 1.65646C68.7137 1.7451 68.7986 1.81712 68.9057 1.87252C69.0128 1.92422 69.1347 1.95562 69.2713 1.9667ZM68.7173 2.22154C68.5696 2.17722 68.4385 2.11258 68.324 2.02764C68.2132 1.94269 68.1246 1.83928 68.0581 1.7174C67.9953 1.59552 67.9639 1.46071 67.9639 1.31298C67.9639 1.10246 68.0193 0.915945 68.1301 0.753438C68.2409 0.590932 68.3942 0.465359 68.5899 0.376719C68.7857 0.284386 69.0128 0.238219 69.2713 0.238219C69.5299 0.238219 69.757 0.284386 69.9528 0.376719C70.1485 0.465359 70.3018 0.590932 70.4126 0.753438C70.5234 0.915945 70.5788 1.1043 70.5788 1.31852C70.5788 1.46625 70.5455 1.60106 70.4791 1.72294C70.4163 1.84112 70.3276 1.94269 70.2131 2.02764C70.1023 2.11258 69.9731 2.17722 69.8253 2.22154H68.7173Z" fill="white"/>
<path d="M72.7748 4.17161V1.78388L72.8025 0.997198L72.1765 1.50688L71.484 2.06088V1.36838L72.9354 0.304699H73.362V4.17161H72.7748ZM71.484 4.17161V3.67301H74.2207V4.17161H71.484Z" fill="white"/>
<path d="M76.1896 2.84201C75.9569 2.84201 75.7445 2.79215 75.5525 2.69243C75.3641 2.59271 75.2127 2.44867 75.0982 2.26032C74.9837 2.07196 74.9265 1.84666 74.9265 1.58444C74.9265 1.32221 74.9837 1.08953 75.0982 0.886398C75.2164 0.683265 75.3807 0.524452 75.5913 0.409959C75.8018 0.295466 76.0455 0.238219 76.3225 0.238219C76.6217 0.238219 76.8802 0.313933 77.0981 0.465359C77.316 0.613092 77.4841 0.825458 77.6023 1.10246C77.7242 1.37946 77.7851 1.71001 77.7851 2.09412C77.7851 2.50777 77.7205 2.8771 77.5912 3.20211C77.4619 3.52343 77.2773 3.77643 77.0372 3.96109C76.8008 4.14576 76.5201 4.23809 76.1951 4.23809C75.9994 4.23809 75.8295 4.20854 75.6854 4.14945C75.5414 4.08666 75.4195 4.00541 75.3198 3.90569C75.2238 3.80597 75.1481 3.69702 75.0927 3.57883C75.0373 3.46065 75.004 3.34246 74.9929 3.22427H75.5968C75.6226 3.38678 75.6891 3.5142 75.7962 3.60653C75.907 3.69517 76.0474 3.73949 76.2173 3.73949C76.4019 3.73949 76.5608 3.68225 76.6937 3.56775C76.8304 3.44957 76.9375 3.28706 77.015 3.08023C77.0926 2.86971 77.1406 2.62595 77.1591 2.34895C77.0483 2.50777 76.9116 2.62965 76.7491 2.71459C76.5866 2.79954 76.4001 2.84201 76.1896 2.84201ZM76.317 0.736818C76.1619 0.736818 76.0252 0.771905 75.907 0.842078C75.7925 0.912251 75.7021 1.01012 75.6356 1.1357C75.5691 1.26127 75.5359 1.40346 75.5359 1.56228C75.5359 1.72109 75.5672 1.85959 75.63 1.97778C75.6965 2.09596 75.787 2.1883 75.9015 2.25478C76.016 2.31756 76.1489 2.34895 76.3004 2.34895C76.5035 2.34895 76.6771 2.29725 76.8211 2.19384C76.9652 2.09042 77.076 1.95192 77.1535 1.77834C77.1203 1.46071 77.0298 1.20772 76.8821 1.01936C76.738 0.830998 76.5497 0.736818 76.317 0.736818Z" fill="white"/>
</svg>
