<svg width="46" height="46" viewBox="0 0 46 46" fill="none" xmlns="http://www.w3.org/2000/svg">
<circle cx="22.5312" cy="22.5312" r="22.5312" fill="black"/>
<path d="M27.0371 31.5438C27.037 34.0324 24.5151 36.0496 21.4043 36.0496C18.2936 36.0494 15.7716 34.0323 15.7715 31.5438H27.0371Z" fill="white"/>
<path fill-rule="evenodd" clip-rule="evenodd" d="M34.6206 15.4389C33.382 20.6076 14.1875 15.9888 15.4348 10.7855C15.4503 10.7206 15.6318 9.87079 15.6478 9.80429C17.0414 3.98845 36.1941 8.91034 34.8856 14.37C34.8693 14.4361 34.6361 15.3743 34.6206 15.4389ZM26.8652 19.9056L23.9005 34.4442C22.008 36.224 18.9208 35.5699 17.9128 33.1755L17.837 32.9953L20.8223 17.6527L26.8652 19.9056Z" fill="white"/>
</svg>
