<svg width="46" height="46" viewBox="0 0 46 46" fill="none" xmlns="http://www.w3.org/2000/svg">
<circle cx="22.5312" cy="22.5312" r="22.5312" fill="#00D1FF"/>
<path fill-rule="evenodd" clip-rule="evenodd" d="M38.5046 27.9512L34.0847 26.6671L36.4565 29.9941L34.4151 31.0275L32.2091 26.1221L29.0819 25.2136L30.3942 30.2189L25.1907 29.04L26.1255 32.1109L31.5128 34.4048L30.4665 36.3821L26.6831 33.9431L28.0227 38.3429L25.8333 39.0543L24.6905 34.4623L22.8779 38.4097L20.8358 37.197L24.233 32.6229L23.4501 29.4775L19.755 33.2833L18.0346 28.3531L15.9265 30.5738L16.6102 36.224L14.3694 36.3094L14.5886 31.9833L11.5298 35.2058L9.81706 33.6713L13.3141 30.3469L8.81424 30.7709L8.84675 28.4017L14.6639 29.0641L16.868 26.969L11.4442 25.5265L15.0424 21.5357L12.451 20.9226L7.80645 24.3957L6.61156 22.5037L10.5784 20.4791L6.00781 19.397L6.48484 17.1512L11.1967 18.517L8.64539 14.9377L10.7197 13.7812L13.0129 19.0435L15.4498 19.7499L14.1882 14.6288L19.7427 16.2113L18.7183 12.9514L13.5264 10.7945L14.4782 8.71069L18.1245 11.0617L16.7774 6.77437L19.206 6.00844L20.2974 10.5369L22.0665 6.68309L23.9849 7.92889L20.7452 12.3978L21.5334 15.6682L25.2557 11.327L26.8464 16.8168L28.8006 14.6748L28.095 9.24017L30.3813 9.01958L30.1713 13.173L33.3297 9.71176L35.2096 11.4255L31.4982 14.9767L35.9374 14.558L35.8143 16.8373L30.1573 16.2592L28.1368 18.1922L32.8201 19.6146L29.4999 23.3679L32.5836 24.0468L37.1555 20.5648L38.49 22.4283L34.4947 24.4675L39.0536 25.4712L38.5046 27.9512ZM24.5959 27.0851L27.9125 27.7111L27.2259 24.6739L23.5357 23.602L24.5959 27.0851ZM14.5485 24.5733L18.2954 25.6115L21.0802 22.9648L16.9111 21.9779L14.5485 24.5733ZM20.3455 18.1297L16.6616 17.3201L17.3768 20.3085L21.3964 21.4736L20.3455 18.1297ZM19.4909 26.8186L20.37 29.9908L22.9621 27.5157L22.1036 24.0657L19.4909 26.8186ZM24.5335 14.9324L21.9991 17.5993L22.8626 21.1825L25.4966 18.2957L24.5335 14.9324ZM29.7357 20.3402L26.7784 19.4919L23.9945 22.1555L27.5347 22.935L29.7357 20.3402Z" fill="white"/>
</svg>
