<svg width="46" height="46" viewBox="0 0 46 46" fill="none" xmlns="http://www.w3.org/2000/svg">
<circle cx="22.5312" cy="22.5312" r="22.5312" fill="#854000"/>
<path fill-rule="evenodd" clip-rule="evenodd" d="M35.6195 19.3724C35.595 19.397 19.3352 35.6514 19.3103 35.6763C11.8378 43.0797 1.9845 33.2457 9.37751 25.7764C9.38594 25.768 10.7201 24.4335 12.6199 22.5347C10.7256 20.6414 9.39692 19.3127 9.38996 19.3058C1.98414 11.8357 11.8213 1.98568 19.2931 9.37625C19.3015 9.38467 20.6364 10.7192 22.5377 12.6194C24.3965 10.7613 25.6926 9.46561 25.701 9.45718C33.2277 1.93295 43.1459 11.8486 35.6195 19.3724ZM26.1381 23.6253C27.384 24.8708 29.3285 23.0474 28.0012 21.7202C26.7894 20.5088 24.8969 22.3849 26.1381 23.6253ZM10.9004 26.9996C5.08406 32.8755 12.1862 40.0108 18.086 34.1565C18.0915 34.151 19.1334 33.1099 20.6771 31.5659L13.6816 24.2185C12.0353 25.8647 10.9073 26.9923 10.9004 26.9996ZM18.5974 21.6214C17.3852 20.4096 15.4927 22.2853 16.7342 23.526C17.9802 24.7719 19.9247 22.9482 18.5974 21.6214ZM23.2495 16.9704C22.0373 15.7583 20.1452 17.634 21.3863 18.8751C22.6326 20.121 24.5771 18.2969 23.2495 16.9704ZM21.3739 23.6253C22.6198 24.8708 24.5647 23.0474 23.2374 21.7202C22.0252 20.5088 20.1327 22.3849 21.3739 23.6253ZM23.3488 26.3712C22.1366 25.1594 20.2445 27.0351 21.4856 28.2758C22.7319 29.5221 24.6764 27.6983 23.3488 26.3712ZM26.8356 11.0685C26.829 11.0751 25.771 12.1327 24.2082 13.6954L31.2935 20.9534C32.9043 19.3428 34.0029 18.2449 34.0088 18.239C40.1126 12.139 32.8687 5.03991 26.8356 11.0685ZM33.8732 23.9508C34.9363 25.0132 35.6115 25.6885 35.6173 25.6948C43.1441 33.2186 33.2255 43.1335 25.6992 35.6093C25.6941 35.6045 24.9673 34.8779 23.8313 33.742L33.8732 23.9508Z" fill="white"/>
</svg>
