<svg width="46" height="46" viewBox="0 0 46 46" fill="none" xmlns="http://www.w3.org/2000/svg">
<circle cx="22.5312" cy="22.5312" r="22.5312" fill="#DB0000"/>
<path fill-rule="evenodd" clip-rule="evenodd" d="M40.5559 12.5872L37.7406 13.4848L39.4192 16.701L35.0667 14.8988L32.1109 17.7741L31.9974 12.9436L29.444 10.0767L32.9856 10.3224L32.1071 6.00844L35.2444 9.54168L38.2842 7.60059L37.4397 10.6557L40.5559 12.5872ZM30.6322 13.2769L31.1708 14.9841C30.2703 15.0861 29.1946 15.5429 28.3297 16.1629C28.6683 16.7805 28.8922 17.4627 28.944 18.154L27.5603 19.2859L23.0408 14.663L24.6255 13.6762C25.3229 13.6459 26.0209 13.8873 26.6491 14.3047C27.6493 13.7075 29.0113 13.2457 30.6322 13.2769ZM16.82 37.5522C0.316189 37.5522 0.590679 14.8337 16.5063 14.8337C31.7634 14.8337 31.7955 37.5522 16.82 37.5522Z" fill="white"/>
</svg>
