<svg width="46" height="46" viewBox="0 0 46 46" fill="none" xmlns="http://www.w3.org/2000/svg">
<circle cx="22.5312" cy="22.5312" r="22.5312" fill="#854000"/>
<path fill-rule="evenodd" clip-rule="evenodd" d="M35.359 26.0191C35.141 28.4882 34.304 30.8905 32.8426 32.8579L34.1733 35.0539L32.6869 36.3788L30.9991 34.8189C28.993 36.4989 26.3064 37.5519 22.9441 37.5519C19.217 37.5519 16.2886 36.4713 14.1325 34.7545L12.3751 36.3788L10.8887 35.0539L12.2312 32.8383C10.6901 30.8741 9.82881 28.4778 9.61612 26.0163L7.6149 25.9479L7.50977 23.9704L9.62946 23.4459C9.87815 20.896 10.8211 18.4121 12.4354 16.3962L10.7864 14.6474L12.1244 13.1756L14.3444 14.4944C14.9582 14.0084 15.6287 13.5748 16.3581 13.2056C16.5013 12.4249 16.7601 11.7399 17.1062 11.1453L14.5575 6.98863L15.9978 6.00812L19.1758 9.07977C21.1628 7.9239 23.7811 7.93351 25.8029 9.04374L28.9433 6.00812L30.3836 6.98863L27.9275 10.9932C28.3319 11.6149 28.6319 12.3372 28.7892 13.1612C29.5167 13.5287 30.183 13.9627 30.7896 14.4508L32.9364 13.1756L34.2744 14.6474L32.6634 16.3561C34.2368 18.3744 35.1345 20.8683 35.3598 23.4283L37.5514 23.9704L37.4463 25.9479L35.359 26.0191ZM21.2906 35.3094L21.3096 32.95C17.5304 32.8083 17.5898 27.0373 21.3561 27.0109L21.458 14.0016C8.85712 15.0994 8.17293 33.9137 21.2906 35.3094ZM23.9805 14.0192L23.9538 16.1828C29.2437 17.311 29.1442 25.493 23.8268 26.4239L23.7156 35.363C36.2696 34.5335 36.5033 15.314 23.9805 14.0192ZM28.3937 26.5124C31.3735 26.5124 31.3545 31.021 28.4443 31.021C25.2575 31.0206 25.4022 26.5124 28.3937 26.5124ZM17.8389 22.2889C14.6986 22.2889 14.8418 17.8471 17.7884 17.8471C20.7241 17.8471 20.7059 22.2889 17.8389 22.2889ZM15.5069 27.3436C13.4645 27.3436 13.5571 24.4545 15.4746 24.4545C17.384 24.4545 17.3715 27.3436 15.5069 27.3436Z" fill="white"/>
</svg>
