<svg width="46" height="46" viewBox="0 0 46 46" fill="none" xmlns="http://www.w3.org/2000/svg">
<circle cx="22.5312" cy="22.5312" r="22.5312" fill="#1CB12B"/>
<path fill-rule="evenodd" clip-rule="evenodd" d="M33.3244 31.2571C33.3244 31.2571 27.6923 33.8224 26.0162 36.5815L15.4649 36.6133L13.108 23.1791L13.2369 23.0535C13.8257 21.3529 18.8369 6.86022 19.4721 4.12031C20.6704 4.36883 21.4 5.26223 21.8448 6.2705C22.3076 4.68131 22.6573 3.43102 22.7997 2.81641C25.9309 3.46548 26.4599 6.22569 25.6716 8.85685C25.379 9.83296 24.3096 13.0699 24.3096 13.0699L22.5491 14.4929L23.1593 15.4602L26.4004 14.0315L32.4184 15.9802C32.4184 15.9802 33.5115 18.2204 34.3419 19.8445C34.8403 20.8194 34.4477 21.6688 33.751 22.1968C34.2292 22.3148 34.7439 22.5059 35.2979 22.7854C33.3553 26.1828 33.3244 31.2571 33.3244 31.2571ZM30.6364 21.9583C30.3109 21.3084 29.6749 20.1232 29.6749 20.1232L26.9845 19.4439L23.8171 21.4666L23.9317 25.3936L28.0309 26.4168C28.0309 26.4168 28.7391 23.4261 30.9742 22.3933C30.839 22.2773 30.724 22.1333 30.6364 21.9583ZM12.9058 7.22248C14.7353 7.22248 15.7873 8.2679 16.4463 9.29149C15.3971 12.0655 12.7666 19.9559 12.7666 19.9559C12.7666 19.9559 13.0192 9.99533 12.9058 7.22248Z" fill="white"/>
</svg>
