<svg width="46" height="46" viewBox="0 0 46 46" fill="none" xmlns="http://www.w3.org/2000/svg">
<circle cx="22.5312" cy="22.5312" r="22.5312" fill="#854000"/>
<path fill-rule="evenodd" clip-rule="evenodd" d="M7.22018 28.5023C4.51121 25.2647 5.25607 19.5562 9.55828 18.4085C11.1017 23.9026 17.4093 25.8376 23.2973 25.8376C29.1827 25.8376 33.7861 23.5446 34.6882 19.1555C38.8503 20.111 41.0926 24.4021 37.9599 28.4635C32.0193 36.1666 12.6109 34.9452 7.22018 28.5023ZM23.2199 23.5175C18.2429 23.5175 11.9871 21.1665 11.9871 17.0907C11.9871 11.9715 21.2476 11.8052 20.4276 5.63281C24.2165 6.2786 26.0565 8.12106 26.0565 11.0332C26.0565 14.2166 23.5254 15.3886 23.5254 15.3886L24.6497 16.9334C24.6497 16.9334 27.6272 15.0353 28.551 14.5209C31.0004 14.8557 32.3898 16.2147 32.3898 18.3713C32.3898 21.5214 27.352 23.5183 23.2199 23.5175Z" fill="white"/>
</svg>
