<svg width="46" height="46" viewBox="0 0 46 46" fill="none" xmlns="http://www.w3.org/2000/svg">
<circle cx="22.5312" cy="22.5312" r="22.5312" fill="#FFD600"/>
<path d="M25.618 15.5986C25.618 15.5986 31.7759 15.969 35.154 18.8723C37.1534 20.5894 38.3028 23.2699 38.3035 26.0358C38.3035 27.9217 37.8887 36.05 22.6772 36.05C11.8666 36.05 7.29687 32.9082 7.29687 28.789C7.29687 25.0172 9.82217 23.0091 15.0605 23.0091C17.2561 23.0091 19.2696 23.5374 20.4886 24.6293C20.7234 24.406 22.4051 22.7997 22.5302 22.6532C20.8233 20.2825 15.0028 18.258 7.64699 20.3624L6.75977 11.2876L12.7152 13.809C13.8963 13.1807 17.171 12.7498 18.6882 12.9641L23.5075 9.0125L25.618 15.5986Z" fill="black"/>
</svg>
