<svg width="46" height="46" viewBox="0 0 46 46" fill="none" xmlns="http://www.w3.org/2000/svg">
<circle cx="22.5312" cy="22.5312" r="22.5312" fill="black"/>
<path fill-rule="evenodd" clip-rule="evenodd" d="M34.641 28.3681C28.7579 28.8112 27.7437 33.0751 27.0854 39.4297L24.4092 39.3846L24.8345 33.978L22.5825 33.5937L21.9799 39.3439L19.6332 39.304L19.9463 34.7442L17.6782 34.3572L17.1326 39.262L14.187 39.2118C14.7506 31.6831 14.2247 27.8379 9.10078 25.9205C6.69475 17.352 10.7664 4.00198 24.4269 5.79674C38.0877 7.59107 38.2064 20.67 34.641 28.3681ZM17.6377 17.5631C12.5246 16.8913 11.3256 25.1621 16.7718 25.878C21.7458 26.5313 22.7308 18.2323 17.6377 17.5631ZM22.6269 26.5566L19.9668 30.3546L23.9727 30.5288L22.6269 26.5566ZM28.0211 20.6426C24.4437 20.1724 23.6047 25.9595 27.4149 26.4601C30.8953 26.917 31.5844 21.111 28.0211 20.6426Z" fill="white"/>
</svg>
