<svg width="46" height="46" viewBox="0 0 46 46" fill="none" xmlns="http://www.w3.org/2000/svg">
<circle cx="22.5312" cy="22.5312" r="22.5312" fill="#007A78"/>
<path d="M24.5117 6.56601V10.3053C28.0859 10.5325 30.9342 11.6558 33.0371 13.6949C35.174 15.7541 36.2432 18.3226 36.2432 21.3853C36.2431 24.3811 35.2079 26.9341 33.1387 29.0318C31.0964 31.1023 28.2122 32.2445 24.5117 32.484V36.2428H20.5898V32.4869C17.2675 32.3226 14.4822 31.2707 12.2461 29.3189L12.2451 29.318C9.95991 27.3097 8.81945 24.6591 8.81934 21.3853C8.81934 18.0986 9.95296 15.4529 12.2266 13.4703C14.463 11.5314 17.2551 10.48 20.5898 10.3033V6.56601H24.5117ZM24.5117 28.7887C26.8154 28.6422 28.6172 27.9394 29.9355 26.6939C31.2874 25.4166 31.9726 23.6554 31.9727 21.3853C31.9727 19.1545 31.3002 17.4112 29.9727 16.1334H29.9717C28.6785 14.8762 26.866 14.1533 24.5117 13.982V28.7887ZM20.5898 13.9996C18.3754 14.1343 16.5909 14.8235 15.2217 16.0582C13.82 17.3224 13.1104 19.0898 13.1104 21.3853C13.1105 23.6544 13.8073 25.4153 15.1846 26.693L15.4512 26.9264C16.7735 28.0269 18.482 28.6432 20.5898 28.7691V13.9996Z" fill="white" stroke="white" stroke-width="0.38625"/>
</svg>
