<?xml version="1.0" standalone="no"?>
<!DOCTYPE svg PUBLIC "-//W3C//DTD SVG 20010904//EN"
 "http://www.w3.org/TR/2001/REC-SVG-20010904/DTD/svg10.dtd">
<svg version="1.0" xmlns="http://www.w3.org/2000/svg"
 width="789.000000pt" height="624.000000pt" viewBox="0 0 789.000000 624.000000"
 preserveAspectRatio="xMidYMid meet">
<metadata>
Created by potrace 1.10, written by Peter Selinger 2001-2011
</metadata>
<g transform="translate(0.000000,624.000000) scale(0.100000,-0.100000)"
fill="#000000" stroke="none">
<path d="M0 3120 l0 -3120 3115 0 3115 0 -2 1592 c-2 1050 -6 1592 -13 1594
-5 2 -19 -16 -29 -39 -10 -23 -33 -67 -51 -97 -18 -31 -37 -83 -44 -120 -7
-36 -18 -78 -26 -95 -13 -29 -29 -85 -44 -155 -4 -19 -14 -48 -23 -65 -8 -16
-23 -61 -33 -100 -24 -99 -30 -113 -112 -282 -40 -83 -73 -157 -73 -164 0 -7
-6 -20 -14 -28 -8 -9 -26 -40 -41 -68 -14 -29 -35 -58 -45 -63 -11 -6 -20 -21
-20 -33 0 -13 -15 -38 -35 -57 -19 -19 -35 -43 -35 -54 -1 -24 -61 -93 -86
-98 -11 -2 -17 -15 -19 -41 -1 -21 -12 -51 -23 -67 -12 -16 -22 -36 -22 -43 0
-8 -11 -22 -25 -31 -14 -9 -25 -24 -25 -32 0 -20 -63 -107 -94 -132 -13 -9
-28 -28 -35 -41 -7 -12 -28 -29 -47 -37 -19 -8 -34 -18 -34 -24 0 -5 -22 -32
-50 -61 -28 -29 -50 -57 -50 -63 0 -6 -18 -26 -40 -45 -22 -19 -40 -37 -40
-42 0 -17 -51 -82 -86 -110 -20 -16 -52 -48 -70 -72 -19 -24 -50 -52 -69 -63
-26 -13 -37 -27 -41 -51 -7 -40 -10 -40 -36 -8 -25 31 -58 34 -58 4 0 -12 8
-28 18 -35 15 -12 16 -15 2 -41 -10 -17 -29 -31 -50 -38 -20 -5 -51 -22 -70
-37 -25 -19 -43 -25 -62 -21 -20 4 -30 -1 -43 -21 -9 -14 -42 -42 -72 -62 -48
-31 -59 -35 -75 -25 -24 15 -55 6 -63 -20 -7 -22 -5 -22 -79 -8 -49 9 -61 8
-75 -5 -23 -21 -30 -20 -57 5 -23 21 -24 21 -51 3 -73 -48 -84 -51 -131 -31
-30 13 -67 18 -121 18 -71 0 -82 -3 -105 -25 -30 -31 -50 -26 -72 16 -15 29
-16 29 -36 11 -19 -17 -20 -17 -38 5 -22 26 -33 27 -65 6 -22 -15 -27 -14 -62
4 -21 12 -55 28 -76 38 -21 9 -45 28 -54 40 -11 18 -21 22 -38 18 -31 -8 -100
37 -121 77 -9 19 -14 45 -11 63 6 41 -17 96 -40 96 -10 0 -26 -14 -35 -30 -21
-37 -45 -48 -64 -29 -11 12 -12 20 -2 47 11 28 10 35 -10 59 -13 16 -25 35
-28 45 -7 21 -49 31 -74 18 -27 -14 -30 -13 -30 13 0 31 -11 44 -39 48 -19 3
-27 14 -38 52 -12 41 -17 47 -41 47 -36 0 -88 51 -78 76 4 9 -1 28 -10 42 -15
23 -15 26 5 53 20 27 21 30 5 54 -16 24 -15 25 7 33 25 10 56 5 65 -9 9 -15
20 -10 32 16 15 32 48 32 74 0 11 -14 29 -25 40 -25 11 0 28 -10 37 -22 l18
-21 48 44 48 44 15 -23 c8 -12 19 -22 25 -22 6 0 18 -6 26 -14 9 -7 50 -27 91
-44 83 -33 215 -52 369 -52 48 0 101 -4 117 -9 16 -5 46 -12 67 -15 34 -4 39
-2 48 22 10 25 12 26 23 9 13 -17 56 -23 69 -10 4 4 53 6 110 4 56 -1 114 2
130 8 32 13 35 40 7 66 -12 11 -18 25 -15 36 3 9 0 21 -7 25 -7 5 -101 9 -208
10 -243 3 -313 9 -369 28 -24 9 -53 16 -65 16 -11 0 -30 7 -40 15 -11 8 -30
15 -43 15 -22 0 -27 9 -24 37 2 15 -15 17 -24 3 -12 -20 -41 -8 -62 26 -31 48
-30 82 2 94 32 12 32 27 -4 65 -16 16 -32 45 -36 62 -6 29 -3 34 19 44 14 7
26 20 26 30 0 33 71 57 95 32 13 -13 21 -13 45 -3 39 16 205 4 243 -18 22 -14
31 -14 45 -4 33 23 41 24 71 3 l29 -21 32 27 c30 25 35 26 74 15 35 -9 46 -8
74 9 22 12 42 17 58 13 14 -4 35 -2 47 4 12 6 40 13 62 16 22 3 83 11 135 18
55 8 105 20 119 30 23 17 26 16 62 -4 29 -16 41 -18 51 -10 12 10 158 48 258
67 19 4 45 13 56 20 15 10 25 10 32 3 11 -11 52 -2 52 11 0 4 -11 13 -24 21
-19 10 -44 10 -118 2 -93 -11 -155 -5 -201 19 -14 8 -26 8 -42 -1 -16 -9 -32
-9 -61 -1 -63 18 -89 14 -102 -14 -6 -14 -20 -25 -30 -25 -10 0 -27 -7 -38
-15 -10 -8 -36 -15 -56 -15 -21 0 -38 -4 -38 -10 0 -5 -12 -10 -27 -10 -16 0
-41 -9 -58 -20 -32 -21 -85 -26 -101 -10 -8 8 -19 8 -38 0 -34 -12 -86 -13
-105 -1 -10 6 -24 5 -42 -4 -29 -15 -39 -10 -52 27 -4 10 -13 18 -20 18 -8 0
-20 7 -28 16 -9 11 -22 14 -45 9 -22 -4 -37 -1 -47 10 -9 8 -27 15 -40 15 -13
0 -36 9 -50 20 -25 20 -28 20 -51 5 -17 -12 -30 -14 -43 -7 -10 5 -24 7 -31 5
-7 -3 -18 -1 -25 5 -7 5 -32 12 -56 16 -24 4 -56 13 -72 22 -16 8 -46 14 -67
14 -53 -1 -212 16 -290 31 -42 8 -76 21 -92 35 -24 22 -168 94 -188 94 -5 0
-17 9 -27 20 -10 11 -25 20 -33 20 -8 0 -12 6 -9 15 4 9 -5 22 -23 35 -17 12
-30 30 -30 41 0 11 -12 27 -29 37 -35 19 -93 122 -73 129 12 5 18 43 6 43 -4
0 -13 -8 -20 -17 -13 -17 -13 -17 -14 0 0 9 6 26 13 38 11 18 8 23 -19 47 -18
15 -35 39 -38 55 -4 19 -13 27 -27 27 -15 0 -19 5 -15 15 3 8 -3 30 -13 48
-15 26 -24 32 -50 31 -21 -1 -31 3 -31 13 0 10 -9 13 -32 11 -29 -3 -33 0 -34
22 -1 14 -8 39 -15 55 l-13 30 -4 -27 c-4 -35 -15 -35 -36 -3 -20 30 -20 35 0
35 11 0 14 5 10 16 -3 9 -6 17 -6 20 0 2 -17 12 -39 23 -29 15 -45 34 -67 78
-16 32 -44 73 -62 92 -18 19 -35 46 -38 60 -9 44 -30 91 -153 352 -17 37 -31
74 -31 83 0 9 -12 35 -27 59 -47 72 -93 182 -93 222 0 11 -7 30 -15 41 -15 22
-30 63 -67 174 -12 36 -27 70 -34 76 -7 6 -11 20 -8 32 4 11 1 37 -6 56 -6 20
-13 65 -14 101 -2 36 -6 69 -10 72 -9 9 -7 81 2 87 4 2 7 46 6 95 -2 79 0 92
15 101 14 7 18 22 18 63 0 56 35 157 91 260 21 39 30 47 53 47 15 0 31 -4 34
-10 4 -6 15 -4 30 6 21 14 27 13 73 -13 l50 -28 29 21 c31 23 148 39 173 24 8
-5 21 -5 31 1 10 5 20 5 23 1 6 -10 -35 -70 -56 -84 -10 -6 -8 -12 8 -26 12
-9 27 -27 33 -39 6 -12 28 -27 48 -34 48 -16 90 -58 95 -95 3 -28 10 -34 116
-90 26 -14 25 7 -3 36 -25 26 -28 33 -17 50 10 17 9 23 -8 40 -13 13 -19 28
-15 39 3 10 0 31 -7 46 -11 24 -10 29 7 41 22 17 96 19 112 3 18 -18 58 -7 61
19 4 23 32 31 32 9 0 -15 53 -59 113 -96 40 -25 67 -22 67 6 0 10 11 0 27 -25
27 -41 63 -57 63 -28 0 19 44 46 74 46 14 0 28 5 31 10 3 6 13 10 20 10 26 0
4 -31 -26 -37 -43 -8 -46 -23 -5 -23 20 0 36 4 36 9 0 5 9 12 19 16 11 3 47
30 81 60 33 30 66 55 71 55 25 0 106 -63 132 -103 16 -23 46 -55 68 -71 25
-19 39 -38 39 -52 0 -28 27 -38 81 -29 26 4 45 3 54 -5 8 -7 26 -10 39 -6 15
4 28 0 36 -9 7 -8 18 -15 26 -15 7 0 26 -16 41 -35 25 -31 30 -34 69 -28 39 5
43 3 58 -25 9 -17 16 -38 16 -47 0 -26 15 -16 27 18 7 20 10 100 9 217 -2 173
-4 187 -26 223 -12 21 -39 46 -59 55 -31 15 -37 23 -42 60 -4 29 -1 46 8 53 7
7 13 22 13 35 0 22 -4 24 -46 24 -49 0 -112 31 -154 75 -22 23 -25 24 -41 9
-17 -15 -20 -15 -44 0 -14 9 -37 36 -52 59 -15 23 -43 61 -63 84 -19 23 -48
58 -63 78 -33 39 -44 42 -93 19 -31 -15 -36 -15 -59 0 -14 10 -31 28 -37 41
-6 13 -37 40 -68 59 -47 29 -70 37 -117 39 -44 1 -62 7 -75 22 -11 14 -37 23
-89 30 -41 6 -74 15 -77 23 -2 7 5 12 17 12 21 0 46 34 36 50 -3 5 -26 9 -50
8 -31 -2 -53 4 -72 18 -40 29 -62 35 -83 24 -13 -7 -19 -6 -24 5 -4 10 -20 15
-52 15 -39 0 -46 3 -41 18 13 47 13 47 -32 48 -32 2 -49 8 -60 23 -23 29 -120
40 -152 17 -35 -24 -49 -20 -49 13 0 17 -5 33 -11 37 -8 4 -9 26 -5 65 l7 59
-926 0 -925 0 0 -3120z m2694 2545 c19 -29 8 -32 -34 -10 -36 19 -39 35 -6 35
14 0 30 -10 40 -25z m95 -58 c18 -20 19 -26 8 -36 -27 -22 -70 19 -52 49 9 15
19 12 44 -13z m-369 -252 c10 -12 7 -15 -14 -21 -29 -7 -46 1 -46 22 0 19 44
18 60 -1z m110 -10 c14 -16 5 -35 -16 -35 -24 0 -75 30 -69 40 9 15 71 12 85
-5z m-598 -50 c-5 -27 -37 -59 -52 -50 -14 8 -4 56 13 67 20 13 42 3 39 -17z
m-122 -40 c0 -8 -7 -15 -15 -15 -16 0 -20 12 -8 23 11 12 23 8 23 -8z m-819
-88 c-8 -8 -11 -5 -11 9 0 27 14 41 18 19 2 -9 -1 -22 -7 -28z m1727 21 c19
-19 14 -34 -14 -47 -22 -10 -30 -9 -46 6 -19 17 -19 18 2 35 26 21 41 23 58 6z
m-1738 -90 c0 -14 -7 -39 -14 -55 -8 -15 -18 -37 -23 -48 -5 -15 -8 -7 -11 29
-4 55 25 137 40 114 4 -7 8 -25 8 -40z m1495 -86 c0 -18 -20 -15 -23 4 -3 10
1 15 10 12 7 -3 13 -10 13 -16z m-1523 -200 c-1 -90 2 -113 15 -123 13 -12 18
-10 31 9 8 12 19 22 24 22 16 0 25 -43 16 -84 -5 -23 -10 -50 -11 -61 -3 -26
-35 -31 -52 -8 -8 10 -15 16 -16 13 -1 -5 -8 -75 -10 -95 0 -9 14 -95 21 -120
6 -25 -2 -33 -32 -30 -27 1 -37 9 -53 41 -17 33 -20 59 -20 164 0 69 5 150 12
180 7 30 16 80 22 110 26 151 54 141 53 -18z m1528 -2792 c22 -11 44 -29 50
-41 9 -15 18 -19 35 -15 32 8 55 -2 66 -30 4 -13 16 -24 26 -24 26 0 104 -31
132 -52 16 -12 41 -18 79 -18 43 0 61 -5 79 -22 21 -19 25 -20 49 -8 20 11 29
12 42 2 9 -7 27 -16 39 -21 31 -14 33 -23 16 -59 -15 -31 -17 -32 -64 -26
l-49 7 0 -35 c0 -20 7 -41 15 -48 13 -11 22 -50 12 -50 -10 0 -74 36 -86 48
-9 9 -25 12 -47 7 -23 -4 -41 -1 -59 11 -31 20 -34 54 -5 54 17 0 19 4 14 28
-10 42 -25 53 -63 46 -23 -5 -37 -15 -45 -33 -6 -14 -20 -39 -30 -54 -16 -23
-17 -32 -7 -53 18 -39 14 -46 -26 -42 -34 3 -38 7 -41 35 -3 26 -9 34 -38 43
-20 7 -38 18 -40 25 -3 7 -24 13 -51 13 -25 1 -53 8 -62 15 -9 8 -24 17 -33
20 -22 8 -24 45 -3 53 8 4 15 14 15 24 0 10 9 28 19 41 18 22 20 22 26 7 9
-23 28 -23 49 1 22 24 13 69 -9 51 -17 -14 -35 -5 -35 19 0 10 -11 23 -25 29
-27 12 -33 40 -13 60 16 16 22 15 68 -8z m-146 -156 c20 -19 20 -35 2 -59 -22
-30 -46 -12 -46 35 0 44 16 53 44 24z m226 -267 c0 -5 -8 -3 -17 4 -10 7 -20
14 -22 16 -1 1 0 7 5 14 5 9 11 7 21 -6 7 -11 13 -23 13 -28z m154 -53 c11 -4
14 -13 10 -29 -3 -13 -1 -26 5 -29 13 -8 15 -46 3 -46 -13 0 -32 23 -32 39 0
8 -7 22 -16 32 -25 27 -6 47 30 33z m-55 -76 c11 -28 -5 -50 -19 -28 -13 20
-13 50 0 50 6 0 15 -10 19 -22z m-85 -59 c26 -53 -3 -68 -45 -23 -24 25 -24
26 -5 40 28 20 33 18 50 -17z m214 -31 c-6 -18 -28 -21 -28 -4 0 9 7 16 16 16
9 0 14 -5 12 -12z m70 -72 c3 -27 -23 -60 -40 -50 -21 13 3 89 25 81 7 -2 13
-16 15 -31z m1122 -101 c0 -8 -7 -15 -15 -15 -8 0 -15 7 -15 15 0 8 7 15 15
15 8 0 15 -7 15 -15z"/>
<path d="M934 4665 c-6 -16 12 -45 27 -45 5 0 9 14 9 30 0 32 -26 43 -36 15z"/>
<path d="M2540 1840 c0 -13 7 -20 18 -20 26 0 34 11 21 27 -17 20 -39 16 -39
-7z"/>
<path d="M7072 6193 l3 -48 65 -6 c36 -4 83 -13 105 -22 50 -19 113 -71 126
-104 5 -13 15 -23 21 -22 39 5 38 6 36 -238 l-3 -238 -40 -5 c-39 -5 -40 -6
-40 -45 0 -39 1 -40 40 -45 l40 -5 0 -195 c0 -184 -1 -195 -19 -198 -11 -2
-41 -26 -66 -52 -58 -60 -105 -81 -195 -89 l-70 -6 0 -40 0 -40 58 -3 c39 -2
77 3 115 17 90 31 114 46 167 105 27 31 54 56 59 56 4 0 35 -27 68 -60 32 -33
65 -60 71 -60 7 0 18 -5 24 -11 24 -24 118 -49 185 -49 l68 0 0 45 0 45 -64 0
c-97 0 -207 58 -245 129 -7 12 -17 21 -24 20 -37 -5 -37 -4 -35 194 l3 192 40
5 c39 5 40 6 40 45 0 39 -1 40 -40 45 l-40 5 0 240 c0 232 1 240 20 244 11 2
46 28 78 57 32 30 66 54 75 54 9 0 26 7 36 15 13 10 44 15 88 15 l68 0 0 50 0
50 -85 0 c-68 0 -85 -3 -85 -15 0 -8 -14 -17 -35 -21 -19 -3 -39 -12 -46 -20
-6 -8 -17 -14 -24 -14 -11 0 -83 -66 -113 -104 -20 -25 -38 -19 -68 19 -34 46
-114 104 -159 116 -19 6 -35 16 -35 24 0 12 -17 15 -86 15 l-85 0 3 -47z"/>
<path d="M3394 5449 c-10 -12 -29 -25 -42 -30 -29 -11 -19 -29 16 -29 20 0 32
9 45 31 28 51 17 68 -19 28z"/>
<path d="M4989 5255 c-24 -19 -49 -35 -54 -35 -17 0 -95 -84 -95 -101 0 -8
-15 -20 -33 -27 -17 -6 -37 -22 -42 -34 -6 -13 -19 -24 -30 -26 -11 -2 -31 -8
-45 -14 -32 -15 -133 -80 -143 -93 -11 -13 -1 -115 12 -128 6 -6 50 -12 98
-14 77 -3 92 -7 133 -34 56 -38 100 -35 162 10 57 42 72 40 98 -14 23 -48 36
-55 55 -28 16 22 37 12 70 -32 27 -35 27 -36 9 -50 -18 -13 -18 -14 -1 -21 10
-4 52 1 93 10 41 9 84 16 96 16 12 0 44 11 73 24 40 20 55 34 70 65 9 22 15
49 13 59 -7 24 8 52 27 52 7 0 15 -10 17 -22 2 -18 11 -24 40 -28 42 -6 76
-32 114 -90 21 -31 33 -40 55 -40 37 0 38 -24 2 -42 -37 -17 -35 -32 4 -36 25
-2 34 2 44 20 6 13 13 24 14 26 1 1 16 -5 33 -14 24 -12 36 -13 52 -4 18 10
35 5 106 -30 46 -23 87 -46 90 -51 7 -12 44 -12 44 0 0 5 -13 12 -29 16 -16 3
-31 14 -34 25 -3 10 -29 34 -59 53 -48 31 -118 110 -107 122 2 2 37 -21 77
-50 81 -59 109 -72 124 -57 7 7 0 23 -21 50 -39 48 -45 91 -14 107 l21 11 -21
9 c-31 15 -31 29 3 42 16 6 30 18 30 26 0 25 -57 60 -86 53 -20 -5 -26 -2 -34
19 -13 35 -14 33 23 55 43 27 107 26 142 -1 22 -18 29 -20 36 -8 25 40 -1 93
-52 108 -21 6 -57 16 -78 22 -21 6 -43 9 -49 5 -5 -3 -13 1 -16 9 -7 19 -35
30 -123 48 -60 12 -87 13 -189 1 -226 -26 -222 -26 -226 -1 -2 15 -13 25 -35
32 -18 5 -36 17 -39 27 -8 25 -46 23 -89 -6 -58 -39 -101 -50 -146 -37 -28 9
-44 9 -59 1 -11 -6 -25 -8 -30 -5 -5 3 -26 -2 -45 -11 -20 -9 -38 -14 -41 -11
-3 3 6 23 20 46 45 70 32 80 -35 26z m437 -39 c15 -12 17 -18 8 -33 -18 -30
-41 -27 -58 8 -9 18 -16 34 -16 36 0 9 49 1 66 -11z m344 -71 c0 -8 -9 -15
-20 -15 -22 0 -27 15 -7 23 21 9 27 7 27 -8z m130 -129 c0 -17 -34 -31 -50
-21 -16 10 8 35 31 35 11 0 19 -6 19 -14z m-136 -141 c20 -15 36 -34 36 -41 0
-8 -2 -14 -4 -14 -16 0 -146 73 -146 81 0 20 77 3 114 -26z m-374 -5 c0 -17
-7 -20 -39 -20 -22 0 -43 5 -46 10 -11 19 6 30 46 30 32 0 39 -3 39 -20z"/>
<path d="M3401 3695 c-30 -17 -62 -92 -68 -158 -5 -66 13 -59 51 19 29 60 58
155 47 153 -3 -1 -17 -7 -30 -14z"/>
<path d="M3152 3493 c-5 -10 -7 -23 -5 -30 2 -6 -5 -17 -16 -23 -12 -6 -21
-20 -21 -31 0 -26 22 -20 35 9 5 12 13 22 17 22 14 0 38 32 38 51 0 24 -36 26
-48 2z"/>
<path d="M3307 3443 c-4 -3 -7 -14 -7 -24 0 -9 -9 -37 -19 -62 -17 -40 -18
-53 -9 -127 l11 -83 -49 -43 c-27 -24 -53 -43 -58 -44 -5 0 -30 21 -55 48 -43
43 -47 51 -47 96 -1 28 -5 51 -10 53 -6 2 -18 -16 -28 -39 -9 -24 -24 -58 -32
-76 -21 -48 -18 -141 6 -196 22 -48 89 -107 162 -141 26 -12 38 -24 40 -42 2
-14 10 -29 18 -33 8 -4 29 -15 47 -24 36 -18 99 -21 140 -5 21 8 40 7 78 -4
27 -8 92 -20 142 -27 152 -19 223 12 307 134 21 31 36 59 32 63 -3 3 -21 2
-40 -4 -19 -6 -40 -7 -47 -2 -8 5 -26 0 -45 -12 l-32 -19 -26 34 c-19 26 -36
36 -68 41 -87 15 -133 57 -168 155 -27 74 -43 103 -80 145 -47 53 -123 184
-116 201 11 28 -27 57 -47 37z"/>
<path d="M3081 3358 c-5 -13 -7 -25 -5 -27 7 -7 34 21 34 35 0 22 -20 16 -29
-8z"/>
<path d="M4191 3007 c-47 -26 -101 -71 -101 -85 0 -6 30 -13 68 -17 96 -9 106
-12 135 -40 20 -21 34 -26 63 -23 44 4 67 30 43 50 -9 7 -27 35 -40 61 -26 53
-36 62 -91 70 -26 4 -47 -1 -77 -16z"/>
<path d="M2667 1233 c-15 -14 -6 -41 18 -57 34 -22 45 -20 45 9 0 15 -6 25
-14 25 -8 0 -16 7 -20 15 -6 16 -18 19 -29 8z"/>
<path d="M4082 1218 c-19 -19 -14 -28 16 -28 27 0 52 15 52 32 0 13 -55 9 -68
-4z"/>
<path d="M2637 1138 c-7 -25 0 -41 14 -33 12 8 12 42 0 49 -5 3 -11 -4 -14
-16z"/>
<path d="M2716 1131 c-15 -17 -15 -19 0 -31 11 -10 20 -11 32 -4 23 15 24 28
3 41 -15 10 -22 9 -35 -6z"/>
</g>
</svg>
